<svg width="400" height="266" viewBox="0 0 400 266" fill="none" xmlns="http://www.w3.org/2000/svg">
<g clip-path="url(#clip0_456_40)">
<path d="M187.386 49.2969H72.0573C67.1481 49.2969 63.1685 53.2666 63.1685 58.1635V173.204C63.1685 178.101 67.1481 182.071 72.0573 182.071H187.386C192.295 182.071 196.275 178.101 196.275 173.204V58.1635C196.275 53.2666 192.295 49.2969 187.386 49.2969Z" fill="#8900F2"/>
<path d="M129.414 202.355C139.454 202.355 147.593 194.236 147.593 184.222C147.593 174.207 139.454 166.088 129.414 166.088C119.374 166.088 111.235 174.207 111.235 184.222C111.235 194.236 119.374 202.355 129.414 202.355Z" fill="#8900F2"/>
<path d="M54.2333 138.754C64.2734 138.754 72.4124 130.635 72.4124 120.62C72.4124 110.605 64.2734 102.486 54.2333 102.486C44.1933 102.486 36.0542 110.605 36.0542 120.62C36.0542 130.635 44.1933 138.754 54.2333 138.754Z" fill="#8900F2"/>
<path d="M200.897 110.531C210.937 110.531 219.076 102.412 219.076 92.3973C219.076 82.3824 210.937 74.2637 200.897 74.2637C190.857 74.2637 182.718 82.3824 182.718 92.3973C182.718 102.412 190.857 110.531 200.897 110.531Z" fill="#8900F2"/>
<path d="M135.129 29.4961C135.129 29.4961 124.081 27.7436 121.114 47.1979C117.817 68.8264 109.014 65.2682 95.0353 82.83C86.8651 93.0922 95.4629 111.215 112.934 110.855C130.406 110.505 146.185 105.466 156.235 107.622C166.286 109.778 166.838 84.101 156.922 76.1786C147.005 68.2567 168.147 45.5066 155.264 35.3765C142.381 25.2458 135.129 29.4961 135.129 29.4961Z" fill="#431F5E"/>
<path d="M69.0895 115.283C68.0819 113.218 68.1432 110.819 68.5068 108.58C70.0814 98.9696 76.8334 90.9391 84.5721 85.0543C92.3366 79.1544 101.223 74.9423 109.392 69.6551C111.512 68.2781 113.637 66.7952 116.071 66.0508C118.505 65.3069 121.334 65.3871 123.345 66.9525C124.764 68.0511 125.584 69.75 126.061 71.4488C127.107 75.1693 126.706 79.1083 126.068 82.882C125.27 87.6416 124.1 92.352 122.177 96.7268C120.635 100.256 118.126 103.887 114.356 104.578C113.265 108.796 111.018 112.748 107.867 115.772C104.264 119.24 99.6943 121.507 94.9526 123.091C90.5837 124.553 85.805 125.507 81.4103 124.143C78.8019 123.348 76.5046 121.818 74.2579 120.258C72.2534 118.929 70.173 117.474 69.0895 115.283ZM108.575 108.875L111.154 104.791C110.605 104.847 110.085 104.954 109.561 105.166C108.145 105.777 107.293 108.002 108.575 108.875Z" fill="#431F5E"/>
<path d="M156.368 46.6032C156.502 47.3254 156.526 48.0822 156.477 48.9458C156.184 53.9839 155.097 58.974 153.256 63.6645C152.13 66.4566 150.753 69.2088 148.804 71.5208C147.994 72.4806 147.078 73.3673 145.882 73.7095C144.649 74.0509 143.095 74.0992 141.872 73.7929C140.794 78.2426 141.243 86.6416 145.095 89.7972C146.272 90.7517 147.671 91.3489 149.071 91.8742C151.799 92.924 154.64 93.7238 157.483 94.3431C160.722 95.0405 164.253 95.5623 166.527 97.9377C166.812 98.2303 167.094 98.6306 166.98 99.0252C166.904 99.2761 166.721 99.4535 166.502 99.594C164.71 101.044 162.496 101.839 160.282 102.597C156.398 103.907 152.41 104.999 148.355 105.73C144.118 106.494 139.744 106.86 135.454 106.399C132.138 106.025 128.865 105.183 125.855 103.697C122.701 102.136 119.471 100.862 116.208 99.3723C113.446 98.1057 110.725 96.66 107.735 96.1466C109.148 93.4667 112.096 91.9625 115.031 91.2505C117.966 90.5748 121.037 90.5132 124.006 89.9457C124.984 89.7445 125.962 89.5073 126.802 88.9079C129.102 87.2498 128.472 83.5666 128.509 81.154L128.625 73.5198C128.283 69.8769 126.777 66.829 125.456 63.4951C123.439 58.3862 123.022 52.5811 124.799 47.3494C126.575 42.1535 130.616 37.6408 135.807 35.8107C140.998 33.9802 147.229 35.0114 151.215 38.8174C153.742 41.2691 155.802 43.4613 156.368 46.6032Z" fill="#F8AE9D"/>
<path d="M140.404 30.3706C145.578 29.7947 150.292 32.3222 153.788 36.2399C156.729 39.5237 158.457 43.8591 158.37 48.2144C158.358 48.8368 158.288 49.5142 157.936 50.0733C157.001 51.4126 154.969 50.9196 153.449 50.3233C150.972 49.3688 149.128 47.9736 146.883 46.7975C144.637 45.6209 141.91 45.7929 139.9 44.1685C138.003 42.6026 131.488 39.3038 131.313 36.7537C131.092 33.6371 136.816 31.0915 139.208 30.5737C139.551 30.4673 139.949 30.4185 140.404 30.3706Z" fill="#431F5E"/>
<path d="M125.498 37.427C121.123 40.2422 119.069 45.1725 118.842 50.4118C118.643 54.811 120.049 59.2608 122.876 62.5818C123.28 63.0561 123.763 63.5367 124.39 63.7486C125.963 64.1977 127.225 62.5343 128.026 61.1143C129.341 58.8134 129.887 56.5697 130.882 54.2427C131.877 51.9152 134.1 50.3303 134.628 47.8041C135.107 45.3946 138.067 38.7318 136.588 36.6446C134.785 34.0896 128.736 35.7242 126.553 36.8308C126.22 36.9642 125.88 37.177 125.498 37.427Z" fill="#431F5E"/>
<path d="M164.413 96.8256C165.104 96.5121 165.931 96.7409 166.391 97.3598C171.553 104.57 173.546 113.604 175.291 122.311C177.271 132.209 179.033 142.141 180.723 152.071C180.824 152.577 180.888 153.118 180.664 153.583C180.44 154.048 179.931 154.292 179.459 154.501C176.476 155.933 173.458 157.328 170.475 158.759C167.264 151.471 164.926 143.764 163.565 135.928C161.65 140.761 158.192 144.959 153.781 147.701C157.068 152.397 160.794 161.046 164.739 165.176C165.258 166.66 164.467 165.447 163.107 165.447C160.863 165.773 160.946 165.237 159.026 165.176C156.25 164.846 155.323 165.049 152.538 165.331C147.908 165.837 143.409 167.281 139.296 169.452C137.251 170.538 135.289 171.772 133.426 173.145C131.819 174.345 127.841 177.166 127.841 177.166C127.548 177.378 126.181 177.069 125.857 176.992C124.914 176.832 123.964 176.71 123.011 176.625C120.63 176.445 118.216 176.12 115.875 175.688C111.159 174.825 106.521 173.494 102.071 171.662C101.643 171.331 103.171 168.185 103.253 167.574C103.172 168.149 94.4088 167.439 93.5443 167.282C90.0888 166.581 86.5923 166.205 83.1372 165.468C84.6843 151.588 88.9328 138.182 93.107 124.883C94.7394 119.65 96.4079 114.416 98.7216 109.481C101.185 104.224 104.365 99.3016 108.187 94.9294C108.297 94.823 108.478 94.7534 108.622 94.792C110.456 95.2517 121.642 98.1228 127.207 100.188C130.043 101.275 132.917 102.256 135.827 103.236C136.976 103.613 138.163 103.992 139.354 103.974C140.149 103.95 140.946 103.782 141.707 103.613C149.46 101.894 157.215 100.03 164.413 96.8256Z" fill="white"/>
<path d="M113.949 124.478C113.63 126.454 113.202 128.465 112.775 130.439C111.736 134.92 110.402 139.327 108.783 143.633C107.956 145.781 107.093 147.894 106.122 150.004C105.637 151.041 105.152 152.078 104.631 153.115C104.37 153.615 104.109 154.151 103.849 154.652C103.626 155.08 103.367 155.473 103.145 155.866C104.698 155.817 112.364 156.258 113.951 156.39M160.706 124.078C161.715 128.432 162.443 132.828 162.936 137.314" stroke="white" stroke-width="1.376" stroke-miterlimit="10" stroke-linecap="round"/>
<path d="M316.05 235.318H200.721C195.812 235.318 191.832 231.349 191.832 226.452V111.411C191.832 106.514 195.812 102.544 200.721 102.544H316.05C320.959 102.544 324.939 106.514 324.939 111.411V226.452C324.939 231.349 320.959 235.318 316.05 235.318Z" fill="#8900F2"/>
<path d="M258.078 82.26C268.118 82.26 276.257 90.3787 276.257 100.394C276.257 110.409 268.118 118.527 258.078 118.527C248.038 118.527 239.898 110.409 239.898 100.394C239.898 90.3787 248.038 82.26 258.078 82.26Z" fill="#8900F2"/>
<path d="M182.897 145.862C192.937 145.862 201.076 153.98 201.076 163.995C201.076 174.01 192.937 182.129 182.897 182.129C172.857 182.129 164.718 174.01 164.718 163.995C164.718 153.98 172.857 145.862 182.897 145.862Z" fill="#8900F2"/>
<path d="M329.56 174.084C339.601 174.084 347.74 182.203 347.74 192.218C347.74 202.233 339.601 210.352 329.56 210.352C319.52 210.352 311.381 202.233 311.381 192.218C311.381 182.203 319.52 174.084 329.56 174.084Z" fill="#8900F2"/>
<path d="M270.215 86.0157C270.743 88.1207 270.042 90.3094 268.887 92.1479C268.071 93.4469 266.93 92.0127 265.267 91.7826C262.693 91.4231 261.064 88.7059 260.507 82.086C260.249 77.2506 260.371 74.8384 260.641 74.4164C261.602 72.9055 264.074 72.3996 266.024 72.5455" fill="#431F5E"/>
<path fill-rule="evenodd" clip-rule="evenodd" d="M202.902 109.544C202.902 109.544 204.709 99.5012 204.059 97.4676C203.505 95.7103 198.261 93.1757 198.261 93.1757C198.261 93.1757 189.139 78.8033 187.143 80.2667C185.519 81.4531 191.894 92.0492 191.894 92.0492C191.894 92.0492 186.081 98.1317 186.162 100.851C186.243 103.57 195.649 112.082 195.649 112.082L202.902 109.544ZM296.647 111.903C296.647 111.903 290.64 110.497 290.431 100.679C290.223 90.8602 290.369 87.509 290.369 87.509L276.128 87.2705C276.128 87.2705 275.984 98.2129 275.982 102.171C275.976 110.787 269.561 113.115 269.561 113.115C269.561 113.115 270.094 122.537 282.084 123.209C291.445 123.735 296.647 111.903 296.647 111.903Z" fill="#F8AE9D"/>
<path fill-rule="evenodd" clip-rule="evenodd" d="M291.678 82.5461C297.58 82.3182 296.617 90.9375 290.486 90.926C290.486 90.926 283.896 104.143 273.55 104.177C268.567 104.194 266.94 99.7656 265.445 96.6574C263.952 93.5487 262.855 88.8995 262.764 86.0524C262.666 83.0169 262.653 73.0445 262.653 73.0445L291.908 73.0312L291.678 82.5461Z" fill="#F8AE9D"/>
<path fill-rule="evenodd" clip-rule="evenodd" d="M269.337 112.53C269.337 112.53 253.995 117.307 250.298 123.014C238.388 133.45 223.493 147.783 223.493 147.783C223.493 147.783 209.306 112.266 204.669 108.217C201.495 105.447 195.172 108.872 193.994 112.393C192.481 116.915 202.197 143.441 206.787 155.968L206.787 155.969C207.676 158.396 208.373 160.297 208.757 161.411C211.556 169.509 218.364 174.154 226.649 169.007C229.989 166.932 239.929 160.133 248.408 153.97C248.541 160.445 248.764 167.268 248.976 173.748V173.748C249.492 189.491 249.941 203.209 248.861 204.992C243.513 213.828 250.624 219.893 274.167 222.122C297.71 224.35 318.596 222.526 314.806 210.734C314.016 208.277 314.026 202.988 314.42 196.118C316.727 195.995 319.031 195.844 321.334 195.663C331.16 194.891 338.426 190.68 339.439 179.743C340.149 172.084 325.521 136.127 320.036 124.304C318.753 121.538 316.769 119.815 314.521 118.957C313.998 118.374 313.409 117.965 312.747 117.747C308.717 116.423 294.271 110.368 294.271 110.368L277.086 121.584L269.337 112.53ZM316.012 175.823L316.05 175.923L316.003 175.929L316.012 175.823Z" fill="white"/>
<path fill-rule="evenodd" clip-rule="evenodd" d="M277.879 185.313C277.879 185.313 272.638 184.262 270.493 182.582C268.348 180.903 261.851 179.715 261.851 179.715L263.929 184.081C263.929 184.081 248.007 182.59 247.63 184.157C247.253 185.724 251.858 187.427 251.858 187.427C251.858 187.427 254.129 191.659 256.328 194.111C258.408 196.432 268.743 196.156 272.366 194.707C275.497 193.456 278.901 194.082 278.901 194.082L277.879 185.313Z" fill="#F8AE9D"/>
<path d="M290.072 73.4378C289.21 74.5643 287.689 74.8121 286.436 75.0351C284.753 75.3339 283.919 75.9577 283.045 77.6308C282.492 78.7001 281.938 79.8705 280.948 80.4495C280.141 80.9235 280.165 79.7247 280.046 78.7981C280.034 78.7116 280.017 78.6259 279.995 78.5414C279.802 77.8006 279.014 77.9248 278.786 78.6554C278.576 79.3173 278.127 79.8772 277.556 80.1889C277.463 80.2398 277.364 80.2842 277.265 80.2651C277.131 80.2461 277.026 80.1188 276.939 80.0044C276.757 79.7664 276.576 79.464 276.39 79.1444C275.773 78.087 274.597 78.4581 273.908 79.4698C273.477 80.0998 272.965 80.7488 272.26 80.8951C272.032 80.9461 271.747 80.908 271.642 80.685C271.508 80.4114 271.718 80.1379 271.683 79.8581C271.654 79.597 271.543 79.4826 271.42 79.2596C270.944 78.4009 269.837 78.3694 269.163 79.0854C268.694 79.5831 268.205 80.0615 267.697 80.5196C267.482 80.7107 267.167 80.9013 266.952 80.7107C266.835 80.6087 266.806 80.4371 266.783 80.2713C266.66 79.4636 266.544 78.6554 266.421 77.8472C266.351 77.3954 266.113 76.804 265.705 76.9184C265.506 76.9756 265.39 77.1857 265.279 77.3764C265.145 77.6184 262.75 80.3733 262.704 80.1636C262.331 78.5982 261.568 77.1729 261.195 75.6075C258.782 65.5354 269.486 57.4357 277.661 57.3909C279.479 57.378 281.14 57.4082 282.905 57.8347C284.787 58.2926 286.774 59.0197 288.481 60.0442C290.876 61.4758 292.688 64.0781 292.222 67.1832" fill="#431F5E"/>
<path d="M283.424 70.1818C282.272 71.4972 281.966 73.3472 281.859 75.0953C281.701 77.7314 281.916 80.4698 283.125 82.8097C283.469 83.4761 283.724 86.7727 284.255 86.5905C284.424 86.5333 284.396 83.977 284.843 82.5992C285.532 80.4641 288.708 79.6501 290.137 80.9996C292.42 83.1458 291.081 85.7535 290.324 87.3761C289.872 88.3554 289.154 89.454 289.03 90.4905C288.877 91.8169 288.832 96.6506 289.691 97.778C290.408 98.7232 291.172 94.1569 291.821 93.2573C297.87 89.2252 301.241 69.4929 293.031 65.7924C291.782 65.2285 287.928 64.9381 286.758 65.6554" fill="#431F5E"/>
<path d="M333.772 55.2907L342.641 60.2445L343.261 62.3676L342.109 64.9332C340.423 65.4935 336.734 66.5961 335.457 66.5256C334.18 66.4547 332.501 67.6756 331.821 68.295C331.585 69.6511 331.093 72.5235 331.023 73.1601C330.952 73.7972 329.693 77.0233 329.072 78.5568H324.726L323.129 75.0181L315.414 56.7062L313.729 50.1595L314.882 48.3906L320.558 50.8675L333.772 55.2907Z" fill="#8900F2"/>
<path fill-rule="evenodd" clip-rule="evenodd" d="M317.445 46.7938C313.815 45.2851 310.173 48.9178 311.686 52.5389L322.121 77.5212C324.162 82.4072 331.34 81.5812 332.213 76.3606L333.515 68.5685L341.326 67.2696C346.56 66.3997 347.388 59.239 342.49 57.2032L317.445 46.7938ZM314.938 51.1872C314.636 50.4628 315.364 49.7362 316.09 50.0381L341.135 60.4476C342.768 61.1259 342.492 63.5128 340.747 63.8031L332.936 65.1017C332.211 65.222 331.543 65.5652 331.023 66.0831C330.504 66.601 330.16 67.2679 330.04 67.9904L328.737 75.7824C328.447 77.523 326.054 77.7983 325.373 76.1695L314.938 51.1872Z" fill="#8900F2"/>
<path fill-rule="evenodd" clip-rule="evenodd" d="M64.1035 220.825H66.6688C66.9657 220.825 67.2505 220.943 67.4605 221.152C67.6705 221.362 67.7886 221.646 67.7888 221.942V224.501C67.7886 224.797 67.6705 225.081 67.4605 225.291C67.2505 225.5 66.9658 225.618 66.6688 225.618H64.1035C63.8069 225.617 63.5228 225.499 63.3131 225.289C63.1034 225.08 62.9851 224.797 62.9839 224.501V221.942C62.9786 221.328 63.483 220.825 64.1035 220.825ZM72.9977 220.825H75.563C75.8596 220.826 76.1438 220.944 76.3536 221.154C76.5633 221.363 76.6818 221.646 76.683 221.942V224.501C76.6828 224.797 76.5647 225.081 76.3547 225.291C76.1447 225.5 75.86 225.618 75.563 225.618H72.9977C72.7011 225.617 72.417 225.499 72.2073 225.289C71.9976 225.08 71.8793 224.797 71.8781 224.501V221.942C71.8792 221.646 71.9975 221.363 72.2072 221.153C72.417 220.944 72.7011 220.826 72.9977 220.825ZM81.8981 220.825H84.4635C84.7601 220.826 85.0442 220.944 85.254 221.154C85.4638 221.363 85.5822 221.646 85.5835 221.942V224.501C85.5832 224.797 85.4652 225.081 85.2552 225.291C85.0452 225.5 84.7605 225.618 84.4635 225.618H81.8981C81.6015 225.617 81.3175 225.499 81.1078 225.289C80.8981 225.08 80.7798 224.797 80.7786 224.501V221.942C80.7733 221.328 81.2781 220.825 81.8981 220.825ZM90.7924 220.825H93.3577C93.6543 220.826 93.9384 220.944 94.1482 221.154C94.358 221.363 94.4764 221.646 94.4777 221.942V224.501C94.4775 224.797 94.3594 225.081 94.1494 225.291C93.9394 225.5 93.6547 225.618 93.3577 225.618H90.7924C90.4949 225.618 90.2096 225.5 89.9988 225.291C89.788 225.082 89.6689 224.798 89.6675 224.501V221.942C89.6706 221.646 89.7903 221.363 90.0007 221.154C90.2112 220.945 90.4955 220.827 90.7924 220.825ZM99.6879 220.825H102.253C102.551 220.825 102.836 220.943 103.047 221.152C103.258 221.361 103.377 221.645 103.378 221.942V224.501C103.378 224.648 103.349 224.793 103.292 224.929C103.235 225.065 103.152 225.188 103.048 225.292C102.943 225.396 102.819 225.478 102.683 225.534C102.547 225.59 102.401 225.618 102.253 225.618H99.6879C99.3912 225.617 99.107 225.499 98.8973 225.29C98.6875 225.08 98.5691 224.797 98.5679 224.501V221.942C98.5692 221.646 98.6876 221.363 98.8974 221.154C99.1072 220.944 99.3913 220.826 99.6879 220.825ZM73.3244 230.5H75.8897C76.1863 230.501 76.4705 230.619 76.6802 230.828C76.8899 231.037 77.0082 231.321 77.0093 231.617V234.181C77.0082 234.477 76.8899 234.76 76.6802 234.97C76.4705 235.179 76.1863 235.297 75.8897 235.298H73.3244C73.0274 235.298 72.7427 235.18 72.5327 234.971C72.3227 234.761 72.2046 234.477 72.2044 234.181V231.622C72.2035 231.475 72.2318 231.329 72.2877 231.193C72.3436 231.057 72.426 230.933 72.5302 230.828C72.6343 230.724 72.758 230.641 72.8944 230.585C73.0307 230.529 73.1768 230.5 73.3244 230.5ZM82.2186 230.5H84.7839C85.0805 230.501 85.3647 230.619 85.5744 230.828C85.7841 231.037 85.9024 231.321 85.9035 231.617V234.181C85.9024 234.477 85.7841 234.76 85.5744 234.97C85.3647 235.179 85.0805 235.297 84.7839 235.298H82.2186C81.922 235.297 81.6379 235.179 81.4281 234.969C81.2183 234.76 81.0999 234.477 81.0986 234.181V231.622C81.0978 231.475 81.1261 231.329 81.1821 231.193C81.238 231.057 81.3204 230.933 81.4245 230.829C81.5286 230.724 81.6524 230.642 81.7886 230.585C81.9249 230.529 82.0711 230.5 82.2186 230.5ZM91.1137 230.5H93.679C93.9765 230.5 94.2619 230.617 94.4727 230.827C94.6835 231.036 94.8026 231.32 94.8039 231.617V234.181C94.8026 234.478 94.6835 234.762 94.4727 234.971C94.2619 235.18 93.9765 235.298 93.679 235.298H91.1137C90.8171 235.297 90.533 235.179 90.3232 234.969C90.1134 234.76 89.995 234.477 89.9937 234.181V231.622C89.9938 231.325 90.1117 231.041 90.3216 230.831C90.5315 230.62 90.8162 230.501 91.1137 230.5ZM81.8981 210.432H84.4635C84.7601 210.433 85.0442 210.551 85.254 210.76C85.4638 210.969 85.5822 211.253 85.5835 211.548V214.107C85.5832 214.404 85.4652 214.688 85.2552 214.897C85.0452 215.107 84.7605 215.224 84.4635 215.225H81.8981C81.6015 215.223 81.3175 215.105 81.1078 214.896C80.8981 214.687 80.7798 214.403 80.7786 214.107V211.548C80.7733 210.935 81.2781 210.432 81.8981 210.432ZM73.0066 210.432H75.5724C75.869 210.433 76.1531 210.551 76.3629 210.76C76.5726 210.969 76.6909 211.253 76.6919 211.548V214.107C76.6917 214.403 76.5737 214.687 76.3638 214.897C76.1539 215.106 75.8693 215.224 75.5724 215.225H73.0066C72.71 215.223 72.4259 215.105 72.2162 214.896C72.0065 214.687 71.8882 214.403 71.887 214.107V211.548C71.8817 210.935 72.3866 210.432 73.0066 210.432ZM90.7924 210.432H93.3577C93.6543 210.433 93.9384 210.551 94.1482 210.76C94.358 210.969 94.4764 211.253 94.4777 211.548V214.107C94.4775 214.404 94.3594 214.688 94.1494 214.897C93.9394 215.107 93.6547 215.224 93.3577 215.225H90.7924C90.4949 215.224 90.2096 215.107 89.9988 214.897C89.788 214.688 89.6689 214.404 89.6675 214.107V211.548C89.6706 211.252 89.7903 210.969 90.0007 210.76C90.2112 210.551 90.4955 210.433 90.7924 210.432Z" fill="#E1E4E5"/>
<path d="M49.4647 71.8198C46.8874 71.8198 44.798 69.7357 44.798 67.1648C44.798 64.5939 46.8874 62.5098 49.4647 62.5098C52.042 62.5098 54.1313 64.5939 54.1313 67.1648C54.1313 69.7357 52.042 71.8198 49.4647 71.8198Z" fill="#8900F2"/>
<path d="M352.949 118.723C350.615 118.723 348.723 116.836 348.723 114.508C348.723 112.18 350.615 110.293 352.949 110.293C355.282 110.293 357.174 112.18 357.174 114.508C357.174 116.836 355.282 118.723 352.949 118.723Z" fill="#8900F2"/>
<path d="M160.676 206.517C157.675 206.517 155.242 204.091 155.242 201.097C155.242 198.104 157.675 195.678 160.676 195.678C163.676 195.678 166.109 198.104 166.109 201.097C166.109 204.091 163.676 206.517 160.676 206.517Z" fill="#E1E4E5"/>
<path d="M136.043 238.956C133.977 238.956 132.302 237.286 132.302 235.225C132.302 233.165 133.977 231.494 136.043 231.494C138.109 231.494 139.783 233.165 139.783 235.225C139.783 237.286 138.109 238.956 136.043 238.956Z" fill="#E1E4E5"/>
<path d="M99.3772 40.4511C96.0785 40.4511 93.4043 37.7836 93.4043 34.4931C93.4043 31.2026 96.0785 28.5352 99.3772 28.5352C102.676 28.5352 105.35 31.2026 105.35 34.4931C105.35 37.7836 102.676 40.4511 99.3772 40.4511Z" fill="#E1E4E5"/>
<path d="M251.15 49.2457C247.482 49.2457 244.509 46.2801 244.509 42.6219C244.509 38.9636 247.482 35.998 251.15 35.998C254.817 35.998 257.79 38.9636 257.79 42.6219C257.79 46.2801 254.817 49.2457 251.15 49.2457Z" fill="#E1E4E5"/>
<path d="M48.6189 183.516C49.4713 186.689 47.5834 189.951 44.4023 190.801C41.2212 191.651 37.9514 189.768 37.099 186.595C36.2467 183.422 38.1345 180.16 41.3156 179.31C44.4967 178.46 47.7665 180.343 48.6189 183.516Z" fill="#E1E4E5"/>
<path d="M343.868 147.714C340.497 147.714 337.765 145.534 337.765 142.844C337.765 140.155 340.497 137.975 343.868 137.975C347.238 137.975 349.97 140.155 349.97 142.844C349.97 145.534 347.238 147.714 343.868 147.714Z" fill="#E1E4E5"/>
<path d="M300.484 38.49C301.371 41.7902 299.408 45.1824 296.099 46.0666C292.791 46.9509 289.39 44.9924 288.504 41.6923C287.617 38.3921 289.58 34.9999 292.889 34.1157C296.197 33.2314 299.598 35.1899 300.484 38.49Z" fill="#E1E4E5"/>
<path d="M356.409 161.852H356.521C357.186 171.178 364.196 171.321 364.196 171.321C364.196 171.321 356.466 171.471 356.466 182.247C356.466 171.471 348.737 171.321 348.737 171.321C348.737 171.321 355.744 171.178 356.409 161.852ZM228.749 60.8691H228.891C229.73 72.9615 238.569 73.1477 238.569 73.1477C238.569 73.1477 228.822 73.341 228.822 87.3135C228.822 73.341 219.076 73.1477 219.076 73.1477C219.076 73.1477 227.911 72.9615 228.749 60.8691Z" fill="#E1E4E5"/>
</g>
<defs>
<clipPath id="clip0_456_40">
<rect width="400" height="266" fill="white"/>
</clipPath>
</defs>
</svg>
