<svg width="600" height="400" viewBox="0 0 600 400" fill="none" xmlns="http://www.w3.org/2000/svg">
<g clip-path="url(#clip0_457_164)">
<path d="M129.377 329.729C138.386 321.946 137.597 306.26 137.597 306.26C137.597 306.26 122.201 303.204 113.197 310.996C104.189 318.78 104.973 334.457 104.973 334.457C104.973 334.457 120.369 337.513 129.377 329.729Z" fill="url(#paint0_linear_457_164)"/>
<path d="M524.393 291.602C519.85 287.059 512.486 287.059 507.943 291.602C503.401 296.144 503.401 303.508 507.943 308.051C512.486 312.593 519.85 312.593 524.393 308.051C528.935 303.508 528.935 296.144 524.393 291.602Z" fill="#100E11"/>
<path d="M195.14 311.826C195.14 302.653 187.703 295.217 178.53 295.217C169.357 295.217 161.921 302.653 161.921 311.826C161.921 320.999 169.357 328.436 178.53 328.436C187.703 328.436 195.14 320.999 195.14 311.826Z" fill="#100E11"/>
<path d="M288.533 58.5266C281.306 58.5266 275.448 64.3851 275.448 71.6119C275.448 78.8388 281.306 84.6973 288.533 84.6973C295.76 84.6973 301.619 78.8388 301.619 71.6119C301.619 64.3851 295.76 58.5266 288.533 58.5266Z" fill="#100E11"/>
<path d="M469.225 94.3933C463.203 94.3933 458.321 89.5111 458.321 83.4887C458.321 77.4662 463.203 72.584 469.225 72.584C475.248 72.584 480.13 77.4662 480.13 83.4887C480.13 89.5111 475.248 94.3933 469.225 94.3933Z" fill="#100E11"/>
<path d="M335.86 196.373C333.05 196.373 330.771 194.094 330.771 191.284C330.771 188.474 333.05 186.195 335.86 186.195C338.67 186.195 340.949 188.474 340.949 191.284C340.949 194.094 338.67 196.373 335.86 196.373Z" fill="#E1E4E5"/>
<path d="M249.88 196.373C247.07 196.373 244.791 194.094 244.791 191.284C244.791 188.474 247.07 186.195 249.88 186.195C252.69 186.195 254.969 188.474 254.969 191.284C254.969 194.094 252.69 196.373 249.88 196.373Z" fill="#E1E4E5"/>
<path d="M435.68 325.669C433.125 323.114 433.125 318.972 435.68 316.417C438.236 313.862 442.378 313.862 444.933 316.417C447.488 318.972 447.488 323.114 444.933 325.669C442.378 328.224 438.236 328.224 435.68 325.669Z" fill="#E1E4E5"/>
<path d="M163.381 196.706C161.182 196.706 159.399 194.923 159.399 192.724C159.399 190.525 161.182 188.742 163.381 188.742C165.58 188.742 167.363 190.525 167.363 192.724C167.363 194.923 165.58 196.706 163.381 196.706Z" fill="#E1E4E5"/>
<path d="M85.7101 290.736C82.8916 290.736 80.6068 288.451 80.6068 285.633C80.6068 282.814 82.8916 280.529 85.7101 280.529C88.5286 280.529 90.8135 282.814 90.8135 285.633C90.8135 288.451 88.5286 290.736 85.7101 290.736Z" fill="#E1E4E5"/>
<path d="M369.271 112.455C365.906 112.455 363.179 109.728 363.179 106.363C363.179 102.999 365.906 100.271 369.271 100.271C372.635 100.271 375.363 102.999 375.363 106.363C375.363 109.728 372.635 112.455 369.271 112.455Z" fill="#E1E4E5"/>
<path d="M248.842 100.989C249.415 103.129 248.146 105.328 246.006 105.901C243.867 106.475 241.667 105.205 241.094 103.065C240.521 100.926 241.791 98.7267 243.93 98.1534C246.07 97.5801 248.269 98.8498 248.842 100.989Z" fill="#E1E4E5"/>
<path d="M226.244 311.789C223.411 311.789 221.114 309.493 221.114 306.659C221.114 303.826 223.411 301.529 226.244 301.529C229.077 301.529 231.374 303.826 231.374 306.659C231.374 309.493 229.077 311.789 226.244 311.789Z" fill="#E1E4E5"/>
<path d="M256.384 363.897C253.514 361.027 253.048 356.839 255.344 354.544C257.64 352.248 261.827 352.713 264.697 355.583C267.567 358.453 268.032 362.64 265.737 364.936C263.441 367.232 259.253 366.767 256.384 363.897Z" fill="#E1E4E5"/>
<path d="M420.322 72.1097C421.527 76.6076 418.858 81.2308 414.36 82.436C409.862 83.6412 405.239 80.972 404.034 76.4741C402.829 71.9763 405.498 67.3531 409.996 66.1479C414.493 64.9427 419.117 67.6119 420.322 72.1097Z" fill="#E1E4E5"/>
<path d="M461.994 270.246H462.186C463.324 286.375 475.32 286.623 475.32 286.623C475.32 286.623 462.092 286.882 462.092 305.518C462.092 286.882 448.865 286.623 448.865 286.623C448.865 286.623 460.856 286.375 461.994 270.246ZM200.334 42.5684H200.543C201.78 60.365 214.804 60.6384 214.804 60.6384C214.804 60.6384 200.442 60.9237 200.442 81.487C200.442 60.9237 186.079 60.6384 186.079 60.6384C186.079 60.6384 199.098 60.365 200.334 42.5684Z" fill="#E1E4E5"/>
<path fill-rule="evenodd" clip-rule="evenodd" d="M322.742 305.353L341.677 266.957L294.172 197.633L246.655 266.957L265.59 305.353" fill="#8900F2"/>
<path d="M322.742 305.353L341.677 266.957L294.172 197.633L246.655 266.957L265.59 305.353" stroke="white" stroke-width="4.874" stroke-linecap="round" stroke-linejoin="round"/>
<path fill-rule="evenodd" clip-rule="evenodd" d="M265.312 305.477H322.927V338.625H265.312V305.477Z" fill="#100E11" stroke="white" stroke-width="4.874" stroke-linecap="round" stroke-linejoin="round"/>
<path d="M333.976 83.6979C332.72 83.6975 331.516 83.1985 330.628 82.3106C329.74 81.4226 329.241 80.2183 329.241 78.9626C329.241 77.7067 329.74 76.5024 330.628 75.6143C331.516 74.7263 332.72 74.2271 333.976 74.2266C335.232 74.2271 336.436 74.7262 337.324 75.6143C338.212 76.5024 338.712 77.7067 338.712 78.9626C338.712 80.2185 338.213 81.423 337.325 82.311C336.437 83.199 335.232 83.6979 333.976 83.6979Z" stroke="#E1E4E5" stroke-width="4.874" stroke-linecap="round" stroke-linejoin="round"/>
<path d="M294.157 266.095V197.633" stroke="white" stroke-width="4.874" stroke-linecap="round" stroke-linejoin="round"/>
<path d="M265.07 134.162C218.044 145.88 183.154 188.25 183.154 238.891" stroke="#E1E4E5" stroke-width="4.874"/>
<path d="M269.93 134.197L159.216 134.078" stroke="#E1E4E5" stroke-width="4.874" stroke-linecap="round" stroke-linejoin="round"/>
<path d="M141.263 152.079C131.352 152.079 123.31 144.036 123.31 134.125C123.31 124.215 131.352 116.172 141.263 116.172C151.173 116.172 159.216 124.215 159.216 134.125C159.216 144.048 151.173 152.079 141.263 152.079ZM299.852 155.741H281.899C275.292 155.741 269.93 150.379 269.93 143.772V125.819C269.93 119.212 275.292 113.85 281.899 113.85H299.852C306.459 113.85 311.821 119.212 311.821 125.819V143.772C311.821 150.379 306.459 155.741 299.852 155.741ZM192.131 280.782H174.178C167.571 280.782 162.209 275.42 162.209 268.812V250.859C162.209 244.252 167.571 238.89 174.178 238.89H192.131C198.738 238.89 204.1 244.252 204.1 250.859V268.812C204.1 275.432 198.738 280.782 192.131 280.782Z" stroke="#E1E4E5" stroke-width="4.874" stroke-linecap="round" stroke-linejoin="round"/>
<path d="M316.88 134.162C363.906 145.88 398.796 188.25 398.796 238.891" stroke="#E1E4E5" stroke-width="4.874"/>
<path d="M312.02 134.197L422.733 134.078" stroke="#E1E4E5" stroke-width="4.874" stroke-linecap="round" stroke-linejoin="round"/>
<path d="M440.688 152.079C450.598 152.079 458.641 144.036 458.641 134.125C458.641 124.215 450.598 116.172 440.688 116.172C430.777 116.172 422.734 124.215 422.734 134.125C422.734 144.048 430.777 152.079 440.688 152.079ZM282.098 155.741H300.052C306.658 155.741 312.021 150.379 312.021 143.772V125.819C312.021 119.212 306.658 113.85 300.052 113.85H282.098C275.491 113.85 270.129 119.212 270.129 125.819V143.772C270.129 150.379 275.491 155.741 282.098 155.741ZM389.819 280.782H407.773C414.38 280.782 419.742 275.42 419.742 268.812V250.859C419.742 244.252 414.38 238.89 407.773 238.89H389.819C383.212 238.89 377.85 244.252 377.85 250.859V268.812C377.85 275.432 383.212 280.782 389.819 280.782Z" stroke="#E1E4E5" stroke-width="4.874" stroke-linecap="round" stroke-linejoin="round"/>
<path d="M155.226 341.686H466.953V342.434H155.226V341.686Z" stroke="#E1E4E5" stroke-width="3.424" stroke-linecap="round" stroke-linejoin="round"/>
<path fill-rule="evenodd" clip-rule="evenodd" d="M386.256 357.156C370.46 357.156 357.654 344.349 357.654 328.553C357.654 312.758 370.46 299.951 386.256 299.951C402.051 299.951 414.858 312.758 414.858 328.553C414.858 344.349 402.051 357.156 386.256 357.156Z" fill="#100E11"/>
<path d="M395.79 324.221L383.875 336.355L376.722 329.075" stroke="white" stroke-width="5.105" stroke-linecap="round" stroke-linejoin="round"/>
<path d="M493.959 204.529C493.959 185.043 478.162 169.246 458.675 169.246C439.189 169.246 423.392 185.043 423.392 204.529V206.901C423.392 226.388 439.189 242.185 458.675 242.185C478.162 242.185 493.959 226.388 493.959 206.901V204.529Z" fill="#100E11"/>
<path d="M453.516 202.513C454.673 202.513 455.612 201.575 455.612 200.418C455.612 199.26 454.673 198.322 453.516 198.322C452.359 198.322 451.421 199.26 451.421 200.418C451.421 201.575 452.359 202.513 453.516 202.513Z" fill="white"/>
<path d="M474.734 204.264C474.013 204.152 473.285 204.093 472.556 204.086C468.159 204.055 463.971 205.982 461.096 209.36C458.222 212.738 456.951 217.225 457.621 221.636" stroke="white" stroke-width="5.413" stroke-linecap="round" stroke-linejoin="round"/>
<path d="M475.52 205.263C475.52 209.744 473.739 214.041 470.571 217.21C467.402 220.378 463.105 222.158 458.624 222.159C454.143 222.158 449.846 220.378 446.677 217.21C443.509 214.041 441.729 209.744 441.729 205.263C441.729 200.782 443.509 196.485 446.677 193.316C449.846 190.148 454.143 188.368 458.624 188.367C460.843 188.367 463.04 188.804 465.09 189.653C467.14 190.502 469.002 191.747 470.571 193.316C472.14 194.885 473.385 196.747 474.234 198.797C475.083 200.847 475.52 203.044 475.52 205.263Z" stroke="white" stroke-width="5.413" stroke-linecap="round" stroke-linejoin="round"/>
<path d="M108.281 191.178H108.28C90.7535 191.178 76.5454 205.386 76.5454 222.912V225.046C76.5454 242.573 90.7535 256.781 108.28 256.781H108.281C125.807 256.781 140.015 242.573 140.015 225.046V222.912C140.015 205.386 125.807 191.178 108.281 191.178Z" fill="#100E11"/>
<path d="M103.64 221.099C104.681 221.099 105.525 220.256 105.525 219.215C105.525 218.174 104.681 217.33 103.64 217.33C102.599 217.33 101.755 218.174 101.755 219.215C101.755 220.256 102.599 221.099 103.64 221.099Z" fill="white"/>
<path d="M122.724 222.673C122.075 222.573 121.421 222.52 120.765 222.514C116.81 222.485 113.043 224.219 110.457 227.257C107.872 230.295 106.729 234.331 107.331 238.299" stroke="white" stroke-width="4.869" stroke-linecap="round" stroke-linejoin="round"/>
<path d="M123.43 223.573C123.43 227.603 121.829 231.469 118.979 234.319C116.13 237.169 112.264 238.77 108.234 238.77C106.238 238.77 104.262 238.377 102.418 237.613C100.575 236.849 98.8992 235.73 97.4881 234.319C96.077 232.907 94.9576 231.232 94.1939 229.388C93.4302 227.545 93.0371 225.569 93.0371 223.573C93.0371 221.577 93.4302 219.601 94.1939 217.758C94.9576 215.914 96.077 214.239 97.4881 212.828C98.8993 211.416 100.575 210.297 102.418 209.533C104.262 208.77 106.238 208.377 108.234 208.377C112.264 208.377 116.129 209.978 118.979 212.828C121.829 215.678 123.43 219.543 123.43 223.573Z" stroke="white" stroke-width="4.869" stroke-linecap="round" stroke-linejoin="round"/>
<path d="M77.9126 103.688L87.8179 113.598M107.637 73.9638L117.547 83.8738M87.8173 93.7844L94.4253 100.388M97.7279 83.8731L104.337 90.4764M117.548 64.0524L124.152 70.6611M127.453 54.1484L134.061 60.7518" stroke="#E1E4E5" stroke-width="4.223" stroke-linecap="round" stroke-linejoin="round"/>
<path d="M73.0421 118.64C70.2574 115.855 70.2574 111.341 73.0421 108.556L132.32 49.278C135.105 46.4933 139.619 46.4933 142.403 49.278L158.745 65.6193C161.529 68.404 161.529 72.918 158.745 75.7026L99.4668 134.981C96.6821 137.765 92.1674 137.765 89.3834 134.981L73.0421 118.64Z" stroke="#E1E4E5" stroke-width="4.223" stroke-linecap="round" stroke-linejoin="round"/>
</g>
<defs>
<linearGradient id="paint0_linear_457_164" x1="160.455" y1="298.362" x2="62.2313" y2="352.512" gradientUnits="userSpaceOnUse">
<stop stop-color="white"/>
<stop offset="1" stop-color="#EEEEEE"/>
</linearGradient>
<clipPath id="clip0_457_164">
<rect width="600" height="400" fill="white"/>
</clipPath>
</defs>
</svg>
