<svg width="40" height="40" viewBox="0 0 40 40" fill="none" xmlns="http://www.w3.org/2000/svg">
<path d="M25.9875 5.04531C24.4672 3.40391 22.3437 2.5 20 2.5C17.6437 2.5 15.5133 3.39844 14 5.02969C12.4703 6.67891 11.725 8.92031 11.9 11.3406C12.2469 16.1156 15.8805 20 20 20C24.1195 20 27.7469 16.1164 28.0992 11.3422C28.2766 8.94375 27.5266 6.70703 25.9875 5.04531ZM33.75 37.5H6.24999C5.89004 37.5047 5.53357 37.4291 5.20652 37.2786C4.87947 37.1282 4.59007 36.9068 4.35936 36.6305C3.85155 36.0234 3.64686 35.1945 3.79843 34.3563C4.4578 30.6984 6.51561 27.6258 9.74999 25.4688C12.6234 23.5539 16.2633 22.5 20 22.5C23.7367 22.5 27.3766 23.5547 30.25 25.4688C33.4844 27.625 35.5422 30.6977 36.2016 34.3555C36.3531 35.1937 36.1484 36.0227 35.6406 36.6297C35.41 36.9062 35.1206 37.1277 34.7936 37.2783C34.4665 37.4288 34.11 37.5046 33.75 37.5Z" fill="white"/>
</svg>
