<svg width="1314" height="368" viewBox="0 0 1314 368" fill="none" xmlns="http://www.w3.org/2000/svg">
<rect width="1314" height="368" rx="8" fill="#8900F2"/>
<rect x="48" y="152" width="180" height="64" rx="4" fill="#100E11"/>
<path d="M65.2074 175.545V193H61.517V175.545H65.2074ZM72.7661 185.432V193H69.1354V179.909H72.5957V182.219H72.7491C73.0388 181.457 73.5246 180.855 74.2064 180.412C74.8883 179.963 75.715 179.739 76.6866 179.739C77.5957 179.739 78.3883 179.938 79.0644 180.335C79.7405 180.733 80.2661 181.301 80.6411 182.04C81.0161 182.773 81.2036 183.648 81.2036 184.665V193H77.5729V185.312C77.5786 184.511 77.3741 183.886 76.9593 183.438C76.5445 182.983 75.9735 182.756 75.2462 182.756C74.7576 182.756 74.3258 182.861 73.9508 183.071C73.5814 183.281 73.2917 183.588 73.0814 183.991C72.8769 184.389 72.7718 184.869 72.7661 185.432ZM91.9882 179.909V182.636H84.1047V179.909H91.9882ZM85.8944 176.773H89.5251V188.977C89.5251 189.312 89.5763 189.574 89.6785 189.761C89.7808 189.943 89.9228 190.071 90.1047 190.145C90.2922 190.219 90.5081 190.256 90.7524 190.256C90.9228 190.256 91.0933 190.241 91.2638 190.213C91.4342 190.179 91.5649 190.153 91.6558 190.136L92.2268 192.838C92.045 192.895 91.7893 192.96 91.4598 193.034C91.1302 193.114 90.7297 193.162 90.2581 193.179C89.3831 193.213 88.616 193.097 87.9569 192.83C87.3035 192.562 86.795 192.148 86.4314 191.585C86.0677 191.023 85.8888 190.312 85.8944 189.455V176.773ZM95.3132 193V179.909H98.8331V182.193H98.9695C99.2081 181.381 99.6087 180.767 100.171 180.352C100.734 179.932 101.381 179.722 102.114 179.722C102.296 179.722 102.492 179.733 102.702 179.756C102.913 179.778 103.097 179.81 103.256 179.849V183.071C103.086 183.02 102.85 182.974 102.549 182.935C102.248 182.895 101.972 182.875 101.722 182.875C101.188 182.875 100.711 182.991 100.291 183.224C99.8757 183.452 99.5462 183.77 99.3019 184.179C99.0632 184.588 98.9439 185.06 98.9439 185.594V193H95.3132ZM111.399 193.256C110.075 193.256 108.93 192.974 107.964 192.412C107.004 191.844 106.263 191.054 105.74 190.043C105.217 189.026 104.956 187.847 104.956 186.506C104.956 185.153 105.217 183.972 105.74 182.96C106.263 181.943 107.004 181.153 107.964 180.591C108.93 180.023 110.075 179.739 111.399 179.739C112.723 179.739 113.865 180.023 114.825 180.591C115.791 181.153 116.535 181.943 117.058 182.96C117.581 183.972 117.842 185.153 117.842 186.506C117.842 187.847 117.581 189.026 117.058 190.043C116.535 191.054 115.791 191.844 114.825 192.412C113.865 192.974 112.723 193.256 111.399 193.256ZM111.416 190.443C112.018 190.443 112.521 190.273 112.925 189.932C113.328 189.585 113.632 189.114 113.836 188.517C114.047 187.92 114.152 187.241 114.152 186.48C114.152 185.719 114.047 185.04 113.836 184.443C113.632 183.847 113.328 183.375 112.925 183.028C112.521 182.682 112.018 182.509 111.416 182.509C110.808 182.509 110.297 182.682 109.882 183.028C109.473 183.375 109.163 183.847 108.953 184.443C108.748 185.04 108.646 185.719 108.646 186.48C108.646 187.241 108.748 187.92 108.953 188.517C109.163 189.114 109.473 189.585 109.882 189.932C110.297 190.273 110.808 190.443 111.416 190.443ZM125.987 193.213C124.992 193.213 124.092 192.957 123.285 192.446C122.484 191.929 121.848 191.17 121.376 190.17C120.91 189.165 120.677 187.932 120.677 186.472C120.677 184.972 120.919 183.724 121.402 182.73C121.885 181.73 122.527 180.983 123.328 180.489C124.135 179.989 125.018 179.739 125.978 179.739C126.711 179.739 127.322 179.864 127.811 180.114C128.305 180.358 128.703 180.665 129.004 181.034C129.311 181.398 129.544 181.756 129.703 182.108H129.813V175.545H133.436V193H129.856V190.903H129.703C129.532 191.267 129.291 191.628 128.978 191.986C128.671 192.338 128.271 192.631 127.777 192.864C127.288 193.097 126.691 193.213 125.987 193.213ZM127.137 190.324C127.723 190.324 128.217 190.165 128.62 189.847C129.029 189.523 129.342 189.071 129.558 188.491C129.779 187.912 129.89 187.233 129.89 186.455C129.89 185.676 129.782 185 129.566 184.426C129.35 183.852 129.038 183.409 128.629 183.097C128.22 182.784 127.723 182.628 127.137 182.628C126.541 182.628 126.038 182.79 125.629 183.114C125.22 183.437 124.91 183.886 124.7 184.46C124.49 185.034 124.385 185.699 124.385 186.455C124.385 187.216 124.49 187.889 124.7 188.474C124.916 189.054 125.225 189.509 125.629 189.838C126.038 190.162 126.541 190.324 127.137 190.324ZM145.776 187.426V179.909H149.406V193H145.921V190.622H145.784C145.489 191.389 144.997 192.006 144.31 192.472C143.628 192.937 142.796 193.17 141.813 193.17C140.938 193.17 140.168 192.972 139.503 192.574C138.838 192.176 138.318 191.611 137.943 190.878C137.574 190.145 137.386 189.267 137.381 188.244V179.909H141.011V187.597C141.017 188.369 141.224 188.98 141.634 189.429C142.043 189.878 142.591 190.102 143.278 190.102C143.716 190.102 144.125 190.003 144.506 189.804C144.886 189.599 145.193 189.298 145.426 188.901C145.665 188.503 145.781 188.011 145.776 187.426ZM159.185 193.256C157.844 193.256 156.691 192.972 155.725 192.403C154.765 191.83 154.026 191.034 153.509 190.017C152.998 189 152.742 187.83 152.742 186.506C152.742 185.165 153.001 183.989 153.518 182.977C154.04 181.96 154.782 181.168 155.742 180.599C156.702 180.026 157.844 179.739 159.168 179.739C160.31 179.739 161.31 179.946 162.168 180.361C163.026 180.776 163.705 181.358 164.205 182.108C164.705 182.858 164.981 183.739 165.032 184.75H161.606C161.509 184.097 161.253 183.571 160.839 183.173C160.43 182.77 159.893 182.568 159.228 182.568C158.665 182.568 158.174 182.722 157.753 183.028C157.339 183.33 157.015 183.77 156.782 184.349C156.549 184.929 156.432 185.631 156.432 186.455C156.432 187.29 156.546 188 156.773 188.585C157.006 189.17 157.333 189.616 157.753 189.923C158.174 190.23 158.665 190.384 159.228 190.384C159.643 190.384 160.015 190.298 160.344 190.128C160.68 189.957 160.955 189.71 161.171 189.386C161.393 189.057 161.537 188.662 161.606 188.202H165.032C164.975 189.202 164.702 190.082 164.214 190.844C163.731 191.599 163.063 192.19 162.211 192.616C161.358 193.043 160.35 193.256 159.185 193.256ZM175.279 179.909V182.636H167.396V179.909H175.279ZM169.186 176.773H172.816V188.977C172.816 189.312 172.868 189.574 172.97 189.761C173.072 189.943 173.214 190.071 173.396 190.145C173.583 190.219 173.799 190.256 174.044 190.256C174.214 190.256 174.385 190.241 174.555 190.213C174.725 190.179 174.856 190.153 174.947 190.136L175.518 192.838C175.336 192.895 175.081 192.96 174.751 193.034C174.421 193.114 174.021 193.162 173.549 193.179C172.674 193.213 171.907 193.097 171.248 192.83C170.595 192.562 170.086 192.148 169.723 191.585C169.359 191.023 169.18 190.312 169.186 189.455V176.773ZM178.604 193V179.909H182.235V193H178.604ZM180.428 178.222C179.889 178.222 179.426 178.043 179.039 177.685C178.658 177.321 178.468 176.886 178.468 176.381C178.468 175.881 178.658 175.452 179.039 175.094C179.426 174.73 179.889 174.548 180.428 174.548C180.968 174.548 181.428 174.73 181.809 175.094C182.195 175.452 182.389 175.881 182.389 176.381C182.389 176.886 182.195 177.321 181.809 177.685C181.428 178.043 180.968 178.222 180.428 178.222ZM192.018 193.256C190.694 193.256 189.55 192.974 188.584 192.412C187.623 191.844 186.882 191.054 186.359 190.043C185.837 189.026 185.575 187.847 185.575 186.506C185.575 185.153 185.837 183.972 186.359 182.96C186.882 181.943 187.623 181.153 188.584 180.591C189.55 180.023 190.694 179.739 192.018 179.739C193.342 179.739 194.484 180.023 195.444 180.591C196.41 181.153 197.155 181.943 197.677 182.96C198.2 183.972 198.462 185.153 198.462 186.506C198.462 187.847 198.2 189.026 197.677 190.043C197.155 191.054 196.41 191.844 195.444 192.412C194.484 192.974 193.342 193.256 192.018 193.256ZM192.035 190.443C192.638 190.443 193.14 190.273 193.544 189.932C193.947 189.585 194.251 189.114 194.456 188.517C194.666 187.92 194.771 187.241 194.771 186.48C194.771 185.719 194.666 185.04 194.456 184.443C194.251 183.847 193.947 183.375 193.544 183.028C193.14 182.682 192.638 182.509 192.035 182.509C191.427 182.509 190.916 182.682 190.501 183.028C190.092 183.375 189.783 183.847 189.572 184.443C189.368 185.04 189.265 185.719 189.265 186.48C189.265 187.241 189.368 187.92 189.572 188.517C189.783 189.114 190.092 189.585 190.501 189.932C190.916 190.273 191.427 190.443 192.035 190.443ZM205.413 185.432V193H201.782V179.909H205.243V182.219H205.396C205.686 181.457 206.172 180.855 206.853 180.412C207.535 179.963 208.362 179.739 209.333 179.739C210.243 179.739 211.035 179.938 211.711 180.335C212.387 180.733 212.913 181.301 213.288 182.04C213.663 182.773 213.85 183.648 213.85 184.665V193H210.22V185.312C210.225 184.511 210.021 183.886 209.606 183.438C209.191 182.983 208.62 182.756 207.893 182.756C207.404 182.756 206.973 182.861 206.598 183.071C206.228 183.281 205.939 183.588 205.728 183.991C205.524 184.389 205.419 184.869 205.413 185.432Z" fill="white"/>
<rect x="308" y="80" width="118" height="64" rx="4" fill="#100E11"/>
<path d="M330.986 108.565C330.918 107.878 330.625 107.344 330.108 106.963C329.591 106.582 328.889 106.392 328.003 106.392C327.401 106.392 326.892 106.477 326.477 106.648C326.063 106.812 325.744 107.043 325.523 107.338C325.307 107.634 325.199 107.969 325.199 108.344C325.188 108.656 325.253 108.929 325.395 109.162C325.543 109.395 325.744 109.597 326 109.767C326.256 109.932 326.551 110.077 326.886 110.202C327.222 110.321 327.58 110.423 327.96 110.509L329.528 110.884C330.29 111.054 330.989 111.281 331.625 111.565C332.261 111.849 332.813 112.199 333.278 112.614C333.744 113.028 334.105 113.517 334.361 114.08C334.622 114.642 334.756 115.287 334.761 116.014C334.756 117.082 334.483 118.009 333.943 118.793C333.409 119.571 332.636 120.176 331.625 120.608C330.619 121.034 329.406 121.247 327.986 121.247C326.577 121.247 325.349 121.031 324.304 120.599C323.264 120.168 322.452 119.528 321.866 118.682C321.287 117.83 320.983 116.776 320.955 115.52H324.526C324.565 116.105 324.733 116.594 325.028 116.986C325.33 117.372 325.73 117.665 326.23 117.864C326.736 118.057 327.307 118.153 327.943 118.153C328.568 118.153 329.111 118.062 329.571 117.881C330.037 117.699 330.398 117.446 330.653 117.122C330.909 116.798 331.037 116.426 331.037 116.006C331.037 115.614 330.92 115.284 330.688 115.017C330.46 114.75 330.125 114.523 329.682 114.335C329.244 114.148 328.707 113.977 328.071 113.824L326.17 113.347C324.699 112.989 323.537 112.429 322.685 111.668C321.832 110.906 321.409 109.881 321.415 108.591C321.409 107.534 321.69 106.611 322.259 105.821C322.832 105.031 323.619 104.415 324.619 103.972C325.619 103.528 326.756 103.307 328.028 103.307C329.324 103.307 330.455 103.528 331.42 103.972C332.392 104.415 333.148 105.031 333.688 105.821C334.227 106.611 334.506 107.526 334.523 108.565H330.986ZM338.135 121V107.909H341.766V121H338.135ZM339.959 106.222C339.42 106.222 338.956 106.043 338.57 105.685C338.189 105.321 337.999 104.886 337.999 104.381C337.999 103.881 338.189 103.452 338.57 103.094C338.956 102.73 339.42 102.548 339.959 102.548C340.499 102.548 340.959 102.73 341.34 103.094C341.726 103.452 341.92 103.881 341.92 104.381C341.92 104.886 341.726 105.321 341.34 105.685C340.959 106.043 340.499 106.222 339.959 106.222ZM351.532 126.182C350.356 126.182 349.348 126.02 348.507 125.696C347.671 125.378 347.007 124.943 346.512 124.392C346.018 123.841 345.697 123.222 345.549 122.534L348.907 122.082C349.009 122.344 349.171 122.588 349.393 122.815C349.615 123.043 349.907 123.224 350.271 123.361C350.64 123.503 351.089 123.574 351.617 123.574C352.407 123.574 353.058 123.381 353.569 122.994C354.086 122.614 354.345 121.974 354.345 121.077V118.682H354.191C354.032 119.045 353.794 119.389 353.475 119.713C353.157 120.037 352.748 120.301 352.248 120.506C351.748 120.71 351.152 120.812 350.458 120.812C349.475 120.812 348.581 120.585 347.774 120.131C346.973 119.67 346.333 118.969 345.856 118.026C345.384 117.077 345.149 115.878 345.149 114.429C345.149 112.946 345.39 111.707 345.873 110.713C346.356 109.719 346.998 108.974 347.799 108.48C348.606 107.986 349.49 107.739 350.45 107.739C351.183 107.739 351.796 107.864 352.291 108.114C352.785 108.358 353.183 108.665 353.484 109.034C353.791 109.398 354.027 109.756 354.191 110.108H354.328V107.909H357.933V121.128C357.933 122.241 357.66 123.173 357.115 123.923C356.569 124.673 355.813 125.236 354.848 125.611C353.887 125.991 352.782 126.182 351.532 126.182ZM351.609 118.085C352.194 118.085 352.688 117.94 353.092 117.651C353.501 117.355 353.813 116.935 354.029 116.389C354.251 115.838 354.362 115.179 354.362 114.412C354.362 113.645 354.254 112.98 354.038 112.418C353.822 111.849 353.509 111.409 353.1 111.097C352.691 110.784 352.194 110.628 351.609 110.628C351.012 110.628 350.509 110.79 350.1 111.114C349.691 111.432 349.382 111.875 349.171 112.443C348.961 113.011 348.856 113.668 348.856 114.412C348.856 115.168 348.961 115.821 349.171 116.372C349.387 116.918 349.697 117.341 350.1 117.642C350.509 117.937 351.012 118.085 351.609 118.085ZM365.413 113.432V121H361.782V107.909H365.242V110.219H365.396C365.685 109.457 366.171 108.855 366.853 108.412C367.535 107.963 368.362 107.739 369.333 107.739C370.242 107.739 371.035 107.938 371.711 108.335C372.387 108.733 372.913 109.301 373.288 110.04C373.663 110.773 373.85 111.648 373.85 112.665V121H370.219V113.312C370.225 112.511 370.021 111.886 369.606 111.438C369.191 110.983 368.62 110.756 367.893 110.756C367.404 110.756 366.972 110.861 366.597 111.071C366.228 111.281 365.938 111.588 365.728 111.991C365.523 112.389 365.418 112.869 365.413 113.432ZM392.581 115.426V107.909H396.212V121H392.726V118.622H392.59C392.294 119.389 391.803 120.006 391.115 120.472C390.434 120.937 389.601 121.17 388.618 121.17C387.743 121.17 386.973 120.972 386.309 120.574C385.644 120.176 385.124 119.611 384.749 118.878C384.38 118.145 384.192 117.267 384.186 116.244V107.909H387.817V115.597C387.823 116.369 388.03 116.98 388.439 117.429C388.848 117.878 389.397 118.102 390.084 118.102C390.522 118.102 390.931 118.003 391.311 117.804C391.692 117.599 391.999 117.298 392.232 116.901C392.47 116.503 392.587 116.011 392.581 115.426ZM400.076 125.909V107.909H403.656V110.108H403.818C403.977 109.756 404.207 109.398 404.508 109.034C404.815 108.665 405.212 108.358 405.701 108.114C406.195 107.864 406.809 107.739 407.542 107.739C408.497 107.739 409.377 107.989 410.184 108.489C410.991 108.983 411.636 109.73 412.119 110.73C412.602 111.724 412.843 112.972 412.843 114.472C412.843 115.932 412.607 117.165 412.136 118.17C411.67 119.17 411.033 119.929 410.227 120.446C409.425 120.957 408.528 121.213 407.533 121.213C406.829 121.213 406.229 121.097 405.735 120.864C405.247 120.631 404.846 120.338 404.533 119.986C404.221 119.628 403.982 119.267 403.818 118.903H403.707V125.909H400.076ZM403.63 114.455C403.63 115.233 403.738 115.912 403.954 116.491C404.17 117.071 404.482 117.523 404.891 117.847C405.3 118.165 405.798 118.324 406.383 118.324C406.974 118.324 407.474 118.162 407.883 117.838C408.292 117.509 408.602 117.054 408.812 116.474C409.028 115.889 409.136 115.216 409.136 114.455C409.136 113.699 409.031 113.034 408.82 112.46C408.61 111.886 408.3 111.437 407.891 111.114C407.482 110.79 406.979 110.628 406.383 110.628C405.792 110.628 405.292 110.784 404.883 111.097C404.479 111.409 404.17 111.852 403.954 112.426C403.738 113 403.63 113.676 403.63 114.455Z" fill="white"/>
<rect x="309.5" y="225.5" width="107" height="61" rx="2.5" fill="white"/>
<rect x="309.5" y="225.5" width="107" height="61" rx="2.5" stroke="#100E11" stroke-width="3"/>
<path d="M330.986 252.565C330.918 251.878 330.625 251.344 330.108 250.963C329.591 250.582 328.889 250.392 328.003 250.392C327.401 250.392 326.892 250.477 326.477 250.648C326.063 250.812 325.744 251.043 325.523 251.338C325.307 251.634 325.199 251.969 325.199 252.344C325.188 252.656 325.253 252.929 325.395 253.162C325.543 253.395 325.744 253.597 326 253.767C326.256 253.932 326.551 254.077 326.886 254.202C327.222 254.321 327.58 254.423 327.96 254.509L329.528 254.884C330.29 255.054 330.989 255.281 331.625 255.565C332.261 255.849 332.813 256.199 333.278 256.614C333.744 257.028 334.105 257.517 334.361 258.08C334.622 258.642 334.756 259.287 334.761 260.014C334.756 261.082 334.483 262.009 333.943 262.793C333.409 263.571 332.636 264.176 331.625 264.608C330.619 265.034 329.406 265.247 327.986 265.247C326.577 265.247 325.349 265.031 324.304 264.599C323.264 264.168 322.452 263.528 321.866 262.682C321.287 261.83 320.983 260.776 320.955 259.52H324.526C324.565 260.105 324.733 260.594 325.028 260.986C325.33 261.372 325.73 261.665 326.23 261.864C326.736 262.057 327.307 262.153 327.943 262.153C328.568 262.153 329.111 262.062 329.571 261.881C330.037 261.699 330.398 261.446 330.653 261.122C330.909 260.798 331.037 260.426 331.037 260.006C331.037 259.614 330.92 259.284 330.688 259.017C330.46 258.75 330.125 258.523 329.682 258.335C329.244 258.148 328.707 257.977 328.071 257.824L326.17 257.347C324.699 256.989 323.537 256.429 322.685 255.668C321.832 254.906 321.409 253.881 321.415 252.591C321.409 251.534 321.69 250.611 322.259 249.821C322.832 249.031 323.619 248.415 324.619 247.972C325.619 247.528 326.756 247.307 328.028 247.307C329.324 247.307 330.455 247.528 331.42 247.972C332.392 248.415 333.148 249.031 333.688 249.821C334.227 250.611 334.506 251.526 334.523 252.565H330.986ZM338.135 265V251.909H341.766V265H338.135ZM339.959 250.222C339.42 250.222 338.956 250.043 338.57 249.685C338.189 249.321 337.999 248.886 337.999 248.381C337.999 247.881 338.189 247.452 338.57 247.094C338.956 246.73 339.42 246.548 339.959 246.548C340.499 246.548 340.959 246.73 341.34 247.094C341.726 247.452 341.92 247.881 341.92 248.381C341.92 248.886 341.726 249.321 341.34 249.685C340.959 250.043 340.499 250.222 339.959 250.222ZM351.532 270.182C350.356 270.182 349.348 270.02 348.507 269.696C347.671 269.378 347.007 268.943 346.512 268.392C346.018 267.841 345.697 267.222 345.549 266.534L348.907 266.082C349.009 266.344 349.171 266.588 349.393 266.815C349.615 267.043 349.907 267.224 350.271 267.361C350.64 267.503 351.089 267.574 351.617 267.574C352.407 267.574 353.058 267.381 353.569 266.994C354.086 266.614 354.345 265.974 354.345 265.077V262.682H354.191C354.032 263.045 353.794 263.389 353.475 263.713C353.157 264.037 352.748 264.301 352.248 264.506C351.748 264.71 351.152 264.812 350.458 264.812C349.475 264.812 348.581 264.585 347.774 264.131C346.973 263.67 346.333 262.969 345.856 262.026C345.384 261.077 345.149 259.878 345.149 258.429C345.149 256.946 345.39 255.707 345.873 254.713C346.356 253.719 346.998 252.974 347.799 252.48C348.606 251.986 349.49 251.739 350.45 251.739C351.183 251.739 351.796 251.864 352.291 252.114C352.785 252.358 353.183 252.665 353.484 253.034C353.791 253.398 354.027 253.756 354.191 254.108H354.328V251.909H357.933V265.128C357.933 266.241 357.66 267.173 357.115 267.923C356.569 268.673 355.813 269.236 354.848 269.611C353.887 269.991 352.782 270.182 351.532 270.182ZM351.609 262.085C352.194 262.085 352.688 261.94 353.092 261.651C353.501 261.355 353.813 260.935 354.029 260.389C354.251 259.838 354.362 259.179 354.362 258.412C354.362 257.645 354.254 256.98 354.038 256.418C353.822 255.849 353.509 255.409 353.1 255.097C352.691 254.784 352.194 254.628 351.609 254.628C351.012 254.628 350.509 254.79 350.1 255.114C349.691 255.432 349.382 255.875 349.171 256.443C348.961 257.011 348.856 257.668 348.856 258.412C348.856 259.168 348.961 259.821 349.171 260.372C349.387 260.918 349.697 261.341 350.1 261.642C350.509 261.937 351.012 262.085 351.609 262.085ZM365.413 257.432V265H361.782V251.909H365.242V254.219H365.396C365.685 253.457 366.171 252.855 366.853 252.412C367.535 251.963 368.362 251.739 369.333 251.739C370.242 251.739 371.035 251.938 371.711 252.335C372.387 252.733 372.913 253.301 373.288 254.04C373.663 254.773 373.85 255.648 373.85 256.665V265H370.219V257.312C370.225 256.511 370.021 255.886 369.606 255.438C369.191 254.983 368.62 254.756 367.893 254.756C367.404 254.756 366.972 254.861 366.597 255.071C366.228 255.281 365.938 255.588 365.728 255.991C365.523 256.389 365.418 256.869 365.413 257.432ZM384.186 265V251.909H387.817V265H384.186ZM386.01 250.222C385.47 250.222 385.007 250.043 384.621 249.685C384.24 249.321 384.05 248.886 384.05 248.381C384.05 247.881 384.24 247.452 384.621 247.094C385.007 246.73 385.47 246.548 386.01 246.548C386.55 246.548 387.01 246.73 387.391 247.094C387.777 247.452 387.97 247.881 387.97 248.381C387.97 248.886 387.777 249.321 387.391 249.685C387.01 250.043 386.55 250.222 386.01 250.222ZM395.316 257.432V265H391.685V251.909H395.146V254.219H395.299C395.589 253.457 396.075 252.855 396.756 252.412C397.438 251.963 398.265 251.739 399.237 251.739C400.146 251.739 400.938 251.938 401.614 252.335C402.291 252.733 402.816 253.301 403.191 254.04C403.566 254.773 403.754 255.648 403.754 256.665V265H400.123V257.312C400.129 256.511 399.924 255.886 399.509 255.438C399.095 254.983 398.523 254.756 397.796 254.756C397.308 254.756 396.876 254.861 396.501 255.071C396.131 255.281 395.842 255.588 395.631 255.991C395.427 256.389 395.322 256.869 395.316 257.432Z" fill="#100E11"/>
<rect x="506" y="152" width="96" height="64" rx="4" fill="#100E11"/>
<path d="M519.517 193V175.545H523.207V182.747H530.699V175.545H534.381V193H530.699V185.79H523.207V193H519.517ZM544.23 193.256C542.906 193.256 541.761 192.974 540.795 192.412C539.835 191.844 539.094 191.054 538.571 190.043C538.048 189.026 537.787 187.847 537.787 186.506C537.787 185.153 538.048 183.972 538.571 182.96C539.094 181.943 539.835 181.153 540.795 180.591C541.761 180.023 542.906 179.739 544.23 179.739C545.554 179.739 546.696 180.023 547.656 180.591C548.622 181.153 549.366 181.943 549.889 182.96C550.412 183.972 550.673 185.153 550.673 186.506C550.673 187.847 550.412 189.026 549.889 190.043C549.366 191.054 548.622 191.844 547.656 192.412C546.696 192.974 545.554 193.256 544.23 193.256ZM544.247 190.443C544.849 190.443 545.352 190.273 545.755 189.932C546.159 189.585 546.463 189.114 546.667 188.517C546.878 187.92 546.983 187.241 546.983 186.48C546.983 185.719 546.878 185.04 546.667 184.443C546.463 183.847 546.159 183.375 545.755 183.028C545.352 182.682 544.849 182.509 544.247 182.509C543.639 182.509 543.128 182.682 542.713 183.028C542.304 183.375 541.994 183.847 541.784 184.443C541.579 185.04 541.477 185.719 541.477 186.48C541.477 187.241 541.579 187.92 541.784 188.517C541.994 189.114 542.304 189.585 542.713 189.932C543.128 190.273 543.639 190.443 544.247 190.443ZM553.994 193V179.909H557.454V182.219H557.607C557.88 181.452 558.335 180.847 558.971 180.403C559.607 179.96 560.369 179.739 561.255 179.739C562.153 179.739 562.917 179.963 563.548 180.412C564.179 180.855 564.599 181.457 564.809 182.219H564.946C565.213 181.469 565.696 180.869 566.394 180.42C567.099 179.966 567.931 179.739 568.892 179.739C570.113 179.739 571.105 180.128 571.866 180.906C572.633 181.679 573.017 182.776 573.017 184.196V193H569.394V184.912C569.394 184.185 569.201 183.639 568.815 183.276C568.429 182.912 567.946 182.73 567.366 182.73C566.707 182.73 566.193 182.94 565.823 183.361C565.454 183.776 565.269 184.324 565.269 185.006V193H561.75V184.835C561.75 184.193 561.565 183.682 561.196 183.301C560.832 182.92 560.352 182.73 559.755 182.73C559.352 182.73 558.988 182.832 558.664 183.037C558.346 183.236 558.093 183.517 557.906 183.881C557.718 184.239 557.625 184.659 557.625 185.142V193H553.994ZM582.81 193.256C581.464 193.256 580.305 192.983 579.333 192.438C578.367 191.886 577.623 191.108 577.1 190.102C576.577 189.091 576.316 187.895 576.316 186.514C576.316 185.168 576.577 183.986 577.1 182.969C577.623 181.952 578.359 181.159 579.308 180.591C580.262 180.023 581.381 179.739 582.666 179.739C583.529 179.739 584.333 179.878 585.077 180.156C585.827 180.429 586.481 180.841 587.038 181.392C587.6 181.943 588.038 182.636 588.35 183.472C588.663 184.301 588.819 185.273 588.819 186.386V187.384H577.765V185.134H585.401C585.401 184.611 585.288 184.148 585.06 183.744C584.833 183.341 584.518 183.026 584.114 182.798C583.717 182.565 583.254 182.449 582.725 182.449C582.174 182.449 581.685 182.577 581.259 182.832C580.839 183.082 580.509 183.42 580.271 183.847C580.032 184.267 579.91 184.736 579.904 185.253V187.392C579.904 188.04 580.023 188.599 580.262 189.071C580.506 189.543 580.85 189.906 581.293 190.162C581.737 190.418 582.262 190.545 582.87 190.545C583.273 190.545 583.643 190.489 583.978 190.375C584.313 190.261 584.6 190.091 584.839 189.864C585.077 189.636 585.259 189.358 585.384 189.028L588.742 189.25C588.572 190.057 588.222 190.761 587.694 191.364C587.171 191.96 586.495 192.426 585.666 192.761C584.842 193.091 583.89 193.256 582.81 193.256Z" fill="white"/>
<rect x="682" y="48" width="112" height="64" rx="4" fill="#100E11"/>
<path d="M701.705 89H695.517V71.5455H701.756C703.511 71.5455 705.023 71.8949 706.29 72.5938C707.557 73.2869 708.531 74.2841 709.213 75.5852C709.901 76.8864 710.244 78.4432 710.244 80.2557C710.244 82.0739 709.901 83.6364 709.213 84.9432C708.531 86.25 707.551 87.2528 706.273 87.9517C705 88.6506 703.477 89 701.705 89ZM699.207 85.8381H701.551C702.642 85.8381 703.56 85.6449 704.304 85.2585C705.054 84.8665 705.616 84.2614 705.991 83.4432C706.372 82.6193 706.562 81.5568 706.562 80.2557C706.562 78.9659 706.372 77.9119 705.991 77.0938C705.616 76.2756 705.057 75.6733 704.312 75.2869C703.568 74.9006 702.651 74.7074 701.56 74.7074H699.207V85.8381ZM719.836 89.2557C718.489 89.2557 717.33 88.983 716.358 88.4375C715.393 87.8864 714.648 87.108 714.125 86.1023C713.603 85.0909 713.341 83.8949 713.341 82.5142C713.341 81.1676 713.603 79.9858 714.125 78.9688C714.648 77.9517 715.384 77.1591 716.333 76.5909C717.287 76.0227 718.407 75.7386 719.691 75.7386C720.554 75.7386 721.358 75.8778 722.103 76.1562C722.853 76.429 723.506 76.8409 724.063 77.392C724.625 77.9432 725.063 78.6364 725.375 79.4716C725.688 80.3011 725.844 81.2727 725.844 82.3864V83.3835H714.79V81.1335H722.427C722.427 80.6108 722.313 80.1477 722.086 79.7443C721.858 79.3409 721.543 79.0256 721.14 78.7983C720.742 78.5653 720.279 78.4489 719.75 78.4489C719.199 78.4489 718.711 78.5767 718.285 78.8324C717.864 79.0824 717.535 79.4205 717.296 79.8466C717.057 80.267 716.935 80.7358 716.929 81.2528V83.392C716.929 84.0398 717.049 84.5994 717.287 85.071C717.532 85.5426 717.875 85.9062 718.319 86.1619C718.762 86.4176 719.287 86.5455 719.895 86.5455C720.299 86.5455 720.668 86.4886 721.003 86.375C721.339 86.2614 721.625 86.0909 721.864 85.8636C722.103 85.6364 722.285 85.358 722.41 85.0284L725.768 85.25C725.597 86.0568 725.248 86.7614 724.719 87.3636C724.197 87.9602 723.52 88.4261 722.691 88.7614C721.867 89.0909 720.915 89.2557 719.836 89.2557ZM736.137 75.9091V78.6364H728.253V75.9091H736.137ZM730.043 72.7727H733.674V84.9773C733.674 85.3125 733.725 85.5739 733.827 85.7614C733.929 85.9432 734.071 86.071 734.253 86.1449C734.441 86.2187 734.657 86.2557 734.901 86.2557C735.071 86.2557 735.242 86.2415 735.412 86.2131C735.583 86.179 735.713 86.1534 735.804 86.1364L736.375 88.8381C736.193 88.8949 735.938 88.9602 735.608 89.0341C735.279 89.1136 734.878 89.1619 734.407 89.179C733.532 89.2131 732.764 89.0966 732.105 88.8295C731.452 88.5625 730.943 88.1477 730.58 87.5852C730.216 87.0227 730.037 86.3125 730.043 85.4545V72.7727ZM743.195 89.2472C742.359 89.2472 741.615 89.1023 740.962 88.8125C740.308 88.517 739.791 88.0824 739.411 87.5085C739.036 86.929 738.848 86.2074 738.848 85.3438C738.848 84.6165 738.982 84.0057 739.249 83.5114C739.516 83.017 739.879 82.6193 740.34 82.3182C740.8 82.017 741.322 81.7898 741.908 81.6364C742.499 81.483 743.118 81.375 743.766 81.3125C744.527 81.233 745.141 81.1591 745.607 81.0909C746.072 81.017 746.411 80.9091 746.621 80.767C746.831 80.625 746.936 80.4148 746.936 80.1364V80.0852C746.936 79.5455 746.766 79.1278 746.425 78.8324C746.09 78.5369 745.612 78.3892 744.993 78.3892C744.34 78.3892 743.82 78.5341 743.433 78.8239C743.047 79.108 742.791 79.4659 742.666 79.8977L739.308 79.625C739.479 78.8295 739.814 78.142 740.314 77.5625C740.814 76.9773 741.459 76.5284 742.249 76.2159C743.044 75.8977 743.965 75.7386 745.01 75.7386C745.737 75.7386 746.433 75.8239 747.098 75.9943C747.768 76.1648 748.362 76.429 748.879 76.7869C749.402 77.1449 749.814 77.6051 750.115 78.1676C750.416 78.7244 750.567 79.392 750.567 80.1705V89H747.124V87.1847H747.021C746.811 87.5938 746.53 87.9545 746.178 88.267C745.825 88.5739 745.402 88.8153 744.908 88.9915C744.413 89.1619 743.842 89.2472 743.195 89.2472ZM744.234 86.7415C744.768 86.7415 745.24 86.6364 745.649 86.4261C746.058 86.2102 746.379 85.9205 746.612 85.5568C746.845 85.1932 746.962 84.7812 746.962 84.321V82.9318C746.848 83.0057 746.692 83.0739 746.493 83.1364C746.3 83.1932 746.081 83.2472 745.837 83.2983C745.592 83.3437 745.348 83.3864 745.104 83.4261C744.859 83.4602 744.638 83.4915 744.439 83.5199C744.013 83.5824 743.641 83.6818 743.322 83.8182C743.004 83.9545 742.757 84.1392 742.581 84.3722C742.405 84.5994 742.317 84.8835 742.317 85.2244C742.317 85.7188 742.496 86.0966 742.854 86.358C743.217 86.6136 743.678 86.7415 744.234 86.7415ZM754.344 89V75.9091H757.974V89H754.344ZM756.167 74.2216C755.628 74.2216 755.165 74.0426 754.778 73.6847C754.398 73.321 754.207 72.8864 754.207 72.3807C754.207 71.8807 754.398 71.4517 754.778 71.0938C755.165 70.7301 755.628 70.5483 756.167 70.5483C756.707 70.5483 757.167 70.7301 757.548 71.0938C757.934 71.4517 758.128 71.8807 758.128 72.3807C758.128 72.8864 757.934 73.321 757.548 73.6847C757.167 74.0426 756.707 74.2216 756.167 74.2216ZM765.473 71.5455V89H761.843V71.5455H765.473ZM780.234 79.642L776.91 79.8466C776.853 79.5625 776.731 79.3068 776.543 79.0795C776.356 78.8466 776.109 78.6619 775.802 78.5256C775.501 78.3835 775.14 78.3125 774.72 78.3125C774.157 78.3125 773.683 78.4318 773.296 78.6705C772.91 78.9034 772.717 79.2159 772.717 79.608C772.717 79.9205 772.842 80.1847 773.092 80.4006C773.342 80.6165 773.771 80.7898 774.379 80.9205L776.748 81.3977C778.021 81.6591 778.97 82.0795 779.595 82.6591C780.22 83.2386 780.532 84 780.532 84.9432C780.532 85.8011 780.279 86.554 779.773 87.2017C779.273 87.8494 778.586 88.3551 777.711 88.7188C776.842 89.0767 775.839 89.2557 774.702 89.2557C772.97 89.2557 771.589 88.8949 770.56 88.1733C769.538 87.446 768.938 86.4574 768.762 85.2074L772.333 85.0199C772.441 85.5483 772.702 85.9517 773.117 86.2301C773.532 86.5028 774.063 86.6392 774.711 86.6392C775.347 86.6392 775.859 86.517 776.245 86.2727C776.637 86.0227 776.836 85.7017 776.842 85.3097C776.836 84.9801 776.697 84.7102 776.424 84.5C776.151 84.2841 775.731 84.1193 775.163 84.0057L772.896 83.554C771.617 83.2983 770.666 82.8551 770.041 82.2244C769.421 81.5937 769.112 80.7898 769.112 79.8125C769.112 78.9716 769.339 78.2472 769.793 77.6392C770.254 77.0312 770.898 76.5625 771.728 76.233C772.563 75.9034 773.541 75.7386 774.66 75.7386C776.313 75.7386 777.614 76.0881 778.563 76.7869C779.518 77.4858 780.075 78.4375 780.234 79.642Z" fill="white"/>
<rect x="683.5" y="153.5" width="140" height="61" rx="2.5" fill="white"/>
<rect x="683.5" y="153.5" width="140" height="61" rx="2.5" stroke="#100E11" stroke-width="3"/>
<path d="M695.517 193V175.545H707.074V178.588H699.207V182.747H706.307V185.79H699.207V193H695.517ZM714.017 193.247C713.182 193.247 712.437 193.102 711.784 192.812C711.13 192.517 710.613 192.082 710.233 191.509C709.858 190.929 709.67 190.207 709.67 189.344C709.67 188.616 709.804 188.006 710.071 187.511C710.338 187.017 710.701 186.619 711.162 186.318C711.622 186.017 712.145 185.79 712.73 185.636C713.321 185.483 713.94 185.375 714.588 185.312C715.349 185.233 715.963 185.159 716.429 185.091C716.895 185.017 717.233 184.909 717.443 184.767C717.653 184.625 717.758 184.415 717.758 184.136V184.085C717.758 183.545 717.588 183.128 717.247 182.832C716.912 182.537 716.434 182.389 715.815 182.389C715.162 182.389 714.642 182.534 714.255 182.824C713.869 183.108 713.613 183.466 713.488 183.898L710.13 183.625C710.301 182.83 710.636 182.142 711.136 181.562C711.636 180.977 712.281 180.528 713.071 180.216C713.866 179.898 714.787 179.739 715.832 179.739C716.559 179.739 717.255 179.824 717.92 179.994C718.591 180.165 719.184 180.429 719.701 180.787C720.224 181.145 720.636 181.605 720.937 182.168C721.238 182.724 721.389 183.392 721.389 184.17V193H717.946V191.185H717.844C717.633 191.594 717.352 191.955 717 192.267C716.648 192.574 716.224 192.815 715.73 192.991C715.236 193.162 714.665 193.247 714.017 193.247ZM715.057 190.741C715.591 190.741 716.062 190.636 716.471 190.426C716.88 190.21 717.201 189.92 717.434 189.557C717.667 189.193 717.784 188.781 717.784 188.321V186.932C717.67 187.006 717.514 187.074 717.315 187.136C717.122 187.193 716.903 187.247 716.659 187.298C716.415 187.344 716.17 187.386 715.926 187.426C715.682 187.46 715.46 187.491 715.261 187.52C714.835 187.582 714.463 187.682 714.145 187.818C713.826 187.955 713.579 188.139 713.403 188.372C713.227 188.599 713.139 188.884 713.139 189.224C713.139 189.719 713.318 190.097 713.676 190.358C714.04 190.614 714.5 190.741 715.057 190.741ZM736.902 179.909L732.325 193H728.234L723.657 179.909H727.492L730.211 189.276H730.348L733.058 179.909H736.902ZM745.212 193.256C743.889 193.256 742.744 192.974 741.778 192.412C740.818 191.844 740.076 191.054 739.553 190.043C739.031 189.026 738.769 187.847 738.769 186.506C738.769 185.153 739.031 183.972 739.553 182.96C740.076 181.943 740.818 181.153 741.778 180.591C742.744 180.023 743.889 179.739 745.212 179.739C746.536 179.739 747.678 180.023 748.639 180.591C749.604 181.153 750.349 181.943 750.871 182.96C751.394 183.972 751.656 185.153 751.656 186.506C751.656 187.847 751.394 189.026 750.871 190.043C750.349 191.054 749.604 191.844 748.639 192.412C747.678 192.974 746.536 193.256 745.212 193.256ZM745.229 190.443C745.832 190.443 746.335 190.273 746.738 189.932C747.141 189.585 747.445 189.114 747.65 188.517C747.86 187.92 747.965 187.241 747.965 186.48C747.965 185.719 747.86 185.04 747.65 184.443C747.445 183.847 747.141 183.375 746.738 183.028C746.335 182.682 745.832 182.509 745.229 182.509C744.621 182.509 744.11 182.682 743.695 183.028C743.286 183.375 742.977 183.847 742.766 184.443C742.562 185.04 742.46 185.719 742.46 186.48C742.46 187.241 742.562 187.92 742.766 188.517C742.977 189.114 743.286 189.585 743.695 189.932C744.11 190.273 744.621 190.443 745.229 190.443ZM763.371 187.426V179.909H767.002V193H763.516V190.622H763.38C763.084 191.389 762.593 192.006 761.905 192.472C761.224 192.937 760.391 193.17 759.408 193.17C758.533 193.17 757.763 192.972 757.099 192.574C756.434 192.176 755.914 191.611 755.539 190.878C755.17 190.145 754.982 189.267 754.976 188.244V179.909H758.607V187.597C758.613 188.369 758.82 188.98 759.229 189.429C759.638 189.878 760.187 190.102 760.874 190.102C761.312 190.102 761.721 190.003 762.101 189.804C762.482 189.599 762.789 189.298 763.022 188.901C763.26 188.503 763.377 188.011 763.371 187.426ZM770.866 193V179.909H774.386V182.193H774.522C774.761 181.381 775.162 180.767 775.724 180.352C776.287 179.932 776.934 179.722 777.667 179.722C777.849 179.722 778.045 179.733 778.255 179.756C778.465 179.778 778.65 179.81 778.809 179.849V183.071C778.639 183.02 778.403 182.974 778.102 182.935C777.801 182.895 777.525 182.875 777.275 182.875C776.741 182.875 776.264 182.991 775.843 183.224C775.429 183.452 775.099 183.77 774.855 184.179C774.616 184.588 774.497 185.06 774.497 185.594V193H770.866ZM781.646 193V179.909H785.277V193H781.646ZM783.47 178.222C782.93 178.222 782.467 178.043 782.081 177.685C781.7 177.321 781.51 176.886 781.51 176.381C781.51 175.881 781.7 175.452 782.081 175.094C782.467 174.73 782.93 174.548 783.47 174.548C784.01 174.548 784.47 174.73 784.851 175.094C785.237 175.452 785.43 175.881 785.43 176.381C785.43 176.886 785.237 177.321 784.851 177.685C784.47 178.043 784.01 178.222 783.47 178.222ZM796.108 179.909V182.636H788.225V179.909H796.108ZM790.015 176.773H793.645V188.977C793.645 189.312 793.697 189.574 793.799 189.761C793.901 189.943 794.043 190.071 794.225 190.145C794.412 190.219 794.628 190.256 794.873 190.256C795.043 190.256 795.214 190.241 795.384 190.213C795.555 190.179 795.685 190.153 795.776 190.136L796.347 192.838C796.165 192.895 795.91 192.96 795.58 193.034C795.251 193.114 794.85 193.162 794.378 193.179C793.503 193.213 792.736 193.097 792.077 192.83C791.424 192.562 790.915 192.148 790.552 191.585C790.188 191.023 790.009 190.312 790.015 189.455V176.773ZM805.259 193.256C803.912 193.256 802.753 192.983 801.782 192.438C800.816 191.886 800.071 191.108 799.549 190.102C799.026 189.091 798.765 187.895 798.765 186.514C798.765 185.168 799.026 183.986 799.549 182.969C800.071 181.952 800.807 181.159 801.756 180.591C802.711 180.023 803.83 179.739 805.114 179.739C805.978 179.739 806.782 179.878 807.526 180.156C808.276 180.429 808.929 180.841 809.486 181.392C810.049 181.943 810.486 182.636 810.799 183.472C811.111 184.301 811.267 185.273 811.267 186.386V187.384H800.213V185.134H807.85C807.85 184.611 807.736 184.148 807.509 183.744C807.282 183.341 806.966 183.026 806.563 182.798C806.165 182.565 805.702 182.449 805.174 182.449C804.622 182.449 804.134 182.577 803.708 182.832C803.287 183.082 802.958 183.42 802.719 183.847C802.48 184.267 802.358 184.736 802.353 185.253V187.392C802.353 188.04 802.472 188.599 802.711 189.071C802.955 189.543 803.299 189.906 803.742 190.162C804.185 190.418 804.711 190.545 805.318 190.545C805.722 190.545 806.091 190.489 806.426 190.375C806.762 190.261 807.049 190.091 807.287 189.864C807.526 189.636 807.708 189.358 807.833 189.028L811.191 189.25C811.02 190.057 810.671 190.761 810.142 191.364C809.62 191.96 808.943 192.426 808.114 192.761C807.29 193.091 806.338 193.256 805.259 193.256Z" fill="#100E11"/>
<rect x="683.5" y="257.5" width="127" height="61" rx="2.5" fill="white"/>
<rect x="683.5" y="257.5" width="127" height="61" rx="2.5" stroke="#100E11" stroke-width="3"/>
<path d="M698.526 297H694.571L700.597 279.545H705.352L711.369 297H707.415L703.043 283.534H702.906L698.526 297ZM698.278 290.139H707.619V293.02H698.278V290.139ZM719.667 297.256C718.326 297.256 717.173 296.972 716.207 296.403C715.247 295.83 714.508 295.034 713.991 294.017C713.48 293 713.224 291.83 713.224 290.506C713.224 289.165 713.483 287.989 714 286.977C714.522 285.96 715.264 285.168 716.224 284.599C717.184 284.026 718.326 283.739 719.65 283.739C720.792 283.739 721.792 283.946 722.65 284.361C723.508 284.776 724.187 285.358 724.687 286.108C725.187 286.858 725.463 287.739 725.514 288.75H722.088C721.991 288.097 721.736 287.571 721.321 287.173C720.912 286.77 720.375 286.568 719.71 286.568C719.147 286.568 718.656 286.722 718.236 287.028C717.821 287.33 717.497 287.77 717.264 288.349C717.031 288.929 716.915 289.631 716.915 290.455C716.915 291.29 717.028 292 717.255 292.585C717.488 293.17 717.815 293.616 718.236 293.923C718.656 294.23 719.147 294.384 719.71 294.384C720.125 294.384 720.497 294.298 720.826 294.128C721.162 293.957 721.437 293.71 721.653 293.386C721.875 293.057 722.02 292.662 722.088 292.202H725.514C725.457 293.202 725.184 294.082 724.696 294.844C724.213 295.599 723.545 296.19 722.693 296.616C721.841 297.043 720.832 297.256 719.667 297.256ZM734.713 297.256C733.372 297.256 732.219 296.972 731.253 296.403C730.293 295.83 729.554 295.034 729.037 294.017C728.526 293 728.27 291.83 728.27 290.506C728.27 289.165 728.529 287.989 729.046 286.977C729.568 285.96 730.31 285.168 731.27 284.599C732.23 284.026 733.372 283.739 734.696 283.739C735.838 283.739 736.838 283.946 737.696 284.361C738.554 284.776 739.233 285.358 739.733 286.108C740.233 286.858 740.509 287.739 740.56 288.75H737.134C737.037 288.097 736.782 287.571 736.367 287.173C735.958 286.77 735.421 286.568 734.756 286.568C734.193 286.568 733.702 286.722 733.282 287.028C732.867 287.33 732.543 287.77 732.31 288.349C732.077 288.929 731.96 289.631 731.96 290.455C731.96 291.29 732.074 292 732.301 292.585C732.534 293.17 732.861 293.616 733.282 293.923C733.702 294.23 734.193 294.384 734.756 294.384C735.171 294.384 735.543 294.298 735.872 294.128C736.208 293.957 736.483 293.71 736.699 293.386C736.921 293.057 737.066 292.662 737.134 292.202H740.56C740.503 293.202 740.23 294.082 739.742 294.844C739.259 295.599 738.591 296.19 737.739 296.616C736.887 297.043 735.878 297.256 734.713 297.256ZM749.759 297.256C748.435 297.256 747.291 296.974 746.325 296.412C745.364 295.844 744.623 295.054 744.1 294.043C743.577 293.026 743.316 291.847 743.316 290.506C743.316 289.153 743.577 287.972 744.1 286.96C744.623 285.943 745.364 285.153 746.325 284.591C747.291 284.023 748.435 283.739 749.759 283.739C751.083 283.739 752.225 284.023 753.185 284.591C754.151 285.153 754.896 285.943 755.418 286.96C755.941 287.972 756.202 289.153 756.202 290.506C756.202 291.847 755.941 293.026 755.418 294.043C754.896 295.054 754.151 295.844 753.185 296.412C752.225 296.974 751.083 297.256 749.759 297.256ZM749.776 294.443C750.379 294.443 750.881 294.273 751.285 293.932C751.688 293.585 751.992 293.114 752.197 292.517C752.407 291.92 752.512 291.241 752.512 290.48C752.512 289.719 752.407 289.04 752.197 288.443C751.992 287.847 751.688 287.375 751.285 287.028C750.881 286.682 750.379 286.509 749.776 286.509C749.168 286.509 748.657 286.682 748.242 287.028C747.833 287.375 747.523 287.847 747.313 288.443C747.109 289.04 747.006 289.719 747.006 290.48C747.006 291.241 747.109 291.92 747.313 292.517C747.523 293.114 747.833 293.585 748.242 293.932C748.657 294.273 749.168 294.443 749.776 294.443ZM767.918 291.426V283.909H771.549V297H768.063V294.622H767.927C767.631 295.389 767.14 296.006 766.452 296.472C765.77 296.937 764.938 297.17 763.955 297.17C763.08 297.17 762.31 296.972 761.645 296.574C760.981 296.176 760.461 295.611 760.086 294.878C759.716 294.145 759.529 293.267 759.523 292.244V283.909H763.154V291.597C763.16 292.369 763.367 292.98 763.776 293.429C764.185 293.878 764.733 294.102 765.421 294.102C765.858 294.102 766.268 294.003 766.648 293.804C767.029 293.599 767.336 293.298 767.569 292.901C767.807 292.503 767.924 292.011 767.918 291.426ZM779.044 289.432V297H775.413V283.909H778.873V286.219H779.027C779.316 285.457 779.802 284.855 780.484 284.412C781.166 283.963 781.992 283.739 782.964 283.739C783.873 283.739 784.666 283.938 785.342 284.335C786.018 284.733 786.544 285.301 786.919 286.04C787.294 286.773 787.481 287.648 787.481 288.665V297H783.85V289.312C783.856 288.511 783.652 287.886 783.237 287.438C782.822 286.983 782.251 286.756 781.524 286.756C781.035 286.756 780.603 286.861 780.228 287.071C779.859 287.281 779.569 287.588 779.359 287.991C779.154 288.389 779.049 288.869 779.044 289.432ZM798.266 283.909V286.636H790.382V283.909H798.266ZM792.172 280.773H795.803V292.977C795.803 293.312 795.854 293.574 795.956 293.761C796.058 293.943 796.2 294.071 796.382 294.145C796.57 294.219 796.786 294.256 797.03 294.256C797.2 294.256 797.371 294.241 797.541 294.213C797.712 294.179 797.842 294.153 797.933 294.136L798.504 296.838C798.323 296.895 798.067 296.96 797.737 297.034C797.408 297.114 797.007 297.162 796.536 297.179C795.661 297.213 794.894 297.097 794.234 296.83C793.581 296.562 793.073 296.148 792.709 295.585C792.345 295.023 792.166 294.312 792.172 293.455V280.773Z" fill="#100E11"/>
<rect x="905" y="48" width="125" height="64" rx="4" fill="#100E11"/>
<path d="M933.918 77.6562H930.185C930.116 77.1733 929.977 76.7443 929.767 76.3693C929.557 75.9886 929.287 75.6648 928.957 75.3977C928.628 75.1307 928.247 74.9261 927.815 74.7841C927.389 74.642 926.926 74.571 926.426 74.571C925.523 74.571 924.736 74.7955 924.065 75.2443C923.395 75.6875 922.875 76.3352 922.506 77.1875C922.136 78.0341 921.952 79.0625 921.952 80.2727C921.952 81.517 922.136 82.5625 922.506 83.4091C922.881 84.2557 923.403 84.8949 924.074 85.3267C924.744 85.7585 925.52 85.9744 926.401 85.9744C926.895 85.9744 927.352 85.9091 927.773 85.7784C928.199 85.6477 928.577 85.4574 928.906 85.2074C929.236 84.9517 929.509 84.642 929.724 84.2784C929.946 83.9148 930.099 83.5 930.185 83.0341L933.918 83.0511C933.821 83.8523 933.58 84.625 933.193 85.3693C932.813 86.108 932.298 86.7699 931.651 87.3551C931.009 87.9347 930.241 88.3949 929.349 88.7358C928.463 89.071 927.46 89.2386 926.341 89.2386C924.784 89.2386 923.392 88.8864 922.165 88.1818C920.943 87.4773 919.977 86.4574 919.267 85.1222C918.562 83.7869 918.21 82.1705 918.21 80.2727C918.21 78.3693 918.568 76.75 919.284 75.4148C920 74.0795 920.972 73.0625 922.199 72.3636C923.426 71.6591 924.807 71.3068 926.341 71.3068C927.352 71.3068 928.29 71.4489 929.153 71.733C930.023 72.017 930.793 72.4318 931.463 72.9773C932.134 73.517 932.679 74.179 933.099 74.9631C933.526 75.7472 933.798 76.6449 933.918 77.6562ZM943.371 89.2557C942.047 89.2557 940.902 88.9744 939.936 88.4119C938.976 87.8437 938.234 87.054 937.711 86.0426C937.189 85.0256 936.927 83.8466 936.927 82.5057C936.927 81.1534 937.189 79.9716 937.711 78.9602C938.234 77.9432 938.976 77.1534 939.936 76.5909C940.902 76.0227 942.047 75.7386 943.371 75.7386C944.694 75.7386 945.836 76.0227 946.797 76.5909C947.763 77.1534 948.507 77.9432 949.03 78.9602C949.552 79.9716 949.814 81.1534 949.814 82.5057C949.814 83.8466 949.552 85.0256 949.03 86.0426C948.507 87.054 947.763 87.8437 946.797 88.4119C945.836 88.9744 944.694 89.2557 943.371 89.2557ZM943.388 86.4432C943.99 86.4432 944.493 86.2727 944.896 85.9318C945.299 85.5852 945.603 85.1136 945.808 84.517C946.018 83.9205 946.123 83.2415 946.123 82.4801C946.123 81.7188 946.018 81.0398 945.808 80.4432C945.603 79.8466 945.299 79.375 944.896 79.0284C944.493 78.6818 943.99 78.5085 943.388 78.5085C942.78 78.5085 942.268 78.6818 941.853 79.0284C941.444 79.375 941.135 79.8466 940.924 80.4432C940.72 81.0398 940.618 81.7188 940.618 82.4801C940.618 83.2415 940.72 83.9205 940.924 84.517C941.135 85.1136 941.444 85.5852 941.853 85.9318C942.268 86.2727 942.78 86.4432 943.388 86.4432ZM956.765 81.4318V89H953.134V75.9091H956.595V78.2188H956.748C957.038 77.4574 957.524 76.8551 958.206 76.4119C958.887 75.9631 959.714 75.7386 960.686 75.7386C961.595 75.7386 962.387 75.9375 963.063 76.3352C963.74 76.733 964.265 77.3011 964.64 78.0398C965.015 78.7727 965.203 79.6477 965.203 80.6648V89H961.572V81.3125C961.578 80.5114 961.373 79.8864 960.958 79.4375C960.544 78.983 959.973 78.7557 959.245 78.7557C958.757 78.7557 958.325 78.8608 957.95 79.071C957.581 79.2812 957.291 79.5881 957.081 79.9915C956.876 80.3892 956.771 80.8693 956.765 81.4318ZM975.987 75.9091V78.6364H968.104V75.9091H975.987ZM969.893 72.7727H973.524V84.9773C973.524 85.3125 973.575 85.5739 973.678 85.7614C973.78 85.9432 973.922 86.071 974.104 86.1449C974.291 86.2187 974.507 86.2557 974.751 86.2557C974.922 86.2557 975.092 86.2415 975.263 86.2131C975.433 86.179 975.564 86.1534 975.655 86.1364L976.226 88.8381C976.044 88.8949 975.788 88.9602 975.459 89.0341C975.129 89.1136 974.729 89.1619 974.257 89.179C973.382 89.2131 972.615 89.0966 971.956 88.8295C971.303 88.5625 970.794 88.1477 970.43 87.5852C970.067 87.0227 969.888 86.3125 969.893 85.4545V72.7727ZM983.045 89.2472C982.21 89.2472 981.466 89.1023 980.812 88.8125C980.159 88.517 979.642 88.0824 979.261 87.5085C978.886 86.929 978.699 86.2074 978.699 85.3438C978.699 84.6165 978.832 84.0057 979.099 83.5114C979.366 83.017 979.73 82.6193 980.19 82.3182C980.65 82.017 981.173 81.7898 981.758 81.6364C982.349 81.483 982.969 81.375 983.616 81.3125C984.378 81.233 984.991 81.1591 985.457 81.0909C985.923 81.017 986.261 80.9091 986.471 80.767C986.682 80.625 986.787 80.4148 986.787 80.1364V80.0852C986.787 79.5455 986.616 79.1278 986.275 78.8324C985.94 78.5369 985.463 78.3892 984.844 78.3892C984.19 78.3892 983.67 78.5341 983.284 78.8239C982.898 79.108 982.642 79.4659 982.517 79.8977L979.159 79.625C979.329 78.8295 979.665 78.142 980.165 77.5625C980.665 76.9773 981.309 76.5284 982.099 76.2159C982.895 75.8977 983.815 75.7386 984.861 75.7386C985.588 75.7386 986.284 75.8239 986.949 75.9943C987.619 76.1648 988.213 76.429 988.73 76.7869C989.253 77.1449 989.665 77.6051 989.966 78.1676C990.267 78.7244 990.417 79.392 990.417 80.1705V89H986.974V87.1847H986.872C986.662 87.5938 986.38 87.9545 986.028 88.267C985.676 88.5739 985.253 88.8153 984.758 88.9915C984.264 89.1619 983.693 89.2472 983.045 89.2472ZM984.085 86.7415C984.619 86.7415 985.091 86.6364 985.5 86.4261C985.909 86.2102 986.23 85.9205 986.463 85.5568C986.696 85.1932 986.812 84.7812 986.812 84.321V82.9318C986.699 83.0057 986.542 83.0739 986.344 83.1364C986.15 83.1932 985.932 83.2472 985.687 83.2983C985.443 83.3437 985.199 83.3864 984.954 83.4261C984.71 83.4602 984.488 83.4915 984.29 83.5199C983.863 83.5824 983.491 83.6818 983.173 83.8182C982.855 83.9545 982.608 84.1392 982.432 84.3722C982.255 84.5994 982.167 84.8835 982.167 85.2244C982.167 85.7188 982.346 86.0966 982.704 86.358C983.068 86.6136 983.528 86.7415 984.085 86.7415ZM1000.11 89.2557C998.768 89.2557 997.615 88.9716 996.649 88.4034C995.688 87.8295 994.95 87.0341 994.433 86.017C993.921 85 993.666 83.8295 993.666 82.5057C993.666 81.1648 993.924 79.9886 994.441 78.9773C994.964 77.9602 995.706 77.1676 996.666 76.5994C997.626 76.0256 998.768 75.7386 1000.09 75.7386C1001.23 75.7386 1002.23 75.946 1003.09 76.3608C1003.95 76.7756 1004.63 77.358 1005.13 78.108C1005.63 78.858 1005.9 79.7386 1005.96 80.75H1002.53C1002.43 80.0966 1002.18 79.571 1001.76 79.1733C1001.35 78.7699 1000.82 78.5682 1000.15 78.5682C999.589 78.5682 999.098 78.7216 998.677 79.0284C998.262 79.3295 997.938 79.7699 997.706 80.3494C997.473 80.929 997.356 81.6307 997.356 82.4545C997.356 83.2898 997.47 84 997.697 84.5852C997.93 85.1705 998.257 85.6165 998.677 85.9233C999.098 86.2301 999.589 86.3835 1000.15 86.3835C1000.57 86.3835 1000.94 86.2983 1001.27 86.1278C1001.6 85.9574 1001.88 85.7102 1002.09 85.3864C1002.32 85.0568 1002.46 84.6619 1002.53 84.2017H1005.96C1005.9 85.2017 1005.63 86.0824 1005.14 86.8438C1004.65 87.5994 1003.99 88.1903 1003.13 88.6165C1002.28 89.0426 1001.27 89.2557 1000.11 89.2557ZM1016.2 75.9091V78.6364H1008.32V75.9091H1016.2ZM1010.11 72.7727H1013.74V84.9773C1013.74 85.3125 1013.79 85.5739 1013.89 85.7614C1014 85.9432 1014.14 86.071 1014.32 86.1449C1014.51 86.2187 1014.72 86.2557 1014.97 86.2557C1015.14 86.2557 1015.31 86.2415 1015.48 86.2131C1015.65 86.179 1015.78 86.1534 1015.87 86.1364L1016.44 88.8381C1016.26 88.8949 1016 88.9602 1015.67 89.0341C1015.35 89.1136 1014.94 89.1619 1014.47 89.179C1013.6 89.2131 1012.83 89.0966 1012.17 88.8295C1011.52 88.5625 1011.01 88.1477 1010.65 87.5852C1010.28 87.0227 1010.1 86.3125 1010.11 85.4545V72.7727Z" fill="white"/>
<rect x="1110" y="48" width="156" height="64" rx="4" fill="#100E11"/>
<path d="M1127.45 89L1122.45 71.5455H1126.48L1129.37 83.6733H1129.52L1132.7 71.5455H1136.16L1139.34 83.6989H1139.49L1142.38 71.5455H1146.41L1141.41 89H1137.82L1134.49 77.5881H1134.36L1131.04 89H1127.45ZM1152.91 81.4318V89H1149.28V71.5455H1152.8V78.2188H1152.96C1153.25 77.446 1153.73 76.8409 1154.39 76.4034C1155.05 75.9602 1155.88 75.7386 1156.87 75.7386C1157.78 75.7386 1158.57 75.9375 1159.25 76.3352C1159.93 76.7273 1160.46 77.2926 1160.83 78.0312C1161.21 78.7642 1161.4 79.642 1161.4 80.6648V89H1157.76V81.3125C1157.77 80.5057 1157.57 79.8778 1157.15 79.429C1156.74 78.9801 1156.17 78.7557 1155.43 78.7557C1154.94 78.7557 1154.5 78.8608 1154.12 79.071C1153.74 79.2812 1153.45 79.5881 1153.23 79.9915C1153.02 80.3892 1152.91 80.8693 1152.91 81.4318ZM1168.95 89.2472C1168.11 89.2472 1167.37 89.1023 1166.71 88.8125C1166.06 88.517 1165.54 88.0824 1165.16 87.5085C1164.79 86.929 1164.6 86.2074 1164.6 85.3438C1164.6 84.6165 1164.73 84.0057 1165 83.5114C1165.27 83.017 1165.63 82.6193 1166.09 82.3182C1166.55 82.017 1167.07 81.7898 1167.66 81.6364C1168.25 81.483 1168.87 81.375 1169.52 81.3125C1170.28 81.233 1170.89 81.1591 1171.36 81.0909C1171.82 81.017 1172.16 80.9091 1172.37 80.767C1172.58 80.625 1172.69 80.4148 1172.69 80.1364V80.0852C1172.69 79.5455 1172.52 79.1278 1172.18 78.8324C1171.84 78.5369 1171.36 78.3892 1170.74 78.3892C1170.09 78.3892 1169.57 78.5341 1169.18 78.8239C1168.8 79.108 1168.54 79.4659 1168.42 79.8977L1165.06 79.625C1165.23 78.8295 1165.56 78.142 1166.06 77.5625C1166.56 76.9773 1167.21 76.5284 1168 76.2159C1168.79 75.8977 1169.72 75.7386 1170.76 75.7386C1171.49 75.7386 1172.18 75.8239 1172.85 75.9943C1173.52 76.1648 1174.11 76.429 1174.63 76.7869C1175.15 77.1449 1175.56 77.6051 1175.87 78.1676C1176.17 78.7244 1176.32 79.392 1176.32 80.1705V89H1172.87V87.1847H1172.77C1172.56 87.5938 1172.28 87.9545 1171.93 88.267C1171.58 88.5739 1171.15 88.8153 1170.66 88.9915C1170.16 89.1619 1169.59 89.2472 1168.95 89.2472ZM1169.99 86.7415C1170.52 86.7415 1170.99 86.6364 1171.4 86.4261C1171.81 86.2102 1172.13 85.9205 1172.36 85.5568C1172.6 85.1932 1172.71 84.7812 1172.71 84.321V82.9318C1172.6 83.0057 1172.44 83.0739 1172.24 83.1364C1172.05 83.1932 1171.83 83.2472 1171.59 83.2983C1171.34 83.3437 1171.1 83.3864 1170.85 83.4261C1170.61 83.4602 1170.39 83.4915 1170.19 83.5199C1169.76 83.5824 1169.39 83.6818 1169.07 83.8182C1168.76 83.9545 1168.51 84.1392 1168.33 84.3722C1168.16 84.5994 1168.07 84.8835 1168.07 85.2244C1168.07 85.7188 1168.25 86.0966 1168.6 86.358C1168.97 86.6136 1169.43 86.7415 1169.99 86.7415ZM1187.06 75.9091V78.6364H1179.17V75.9091H1187.06ZM1180.96 72.7727H1184.59V84.9773C1184.59 85.3125 1184.65 85.5739 1184.75 85.7614C1184.85 85.9432 1184.99 86.071 1185.17 86.1449C1185.36 86.2187 1185.58 86.2557 1185.82 86.2557C1185.99 86.2557 1186.16 86.2415 1186.33 86.2131C1186.5 86.179 1186.63 86.1534 1186.73 86.1364L1187.3 88.8381C1187.11 88.8949 1186.86 88.9602 1186.53 89.0341C1186.2 89.1136 1185.8 89.1619 1185.33 89.179C1184.45 89.2131 1183.69 89.0966 1183.03 88.8295C1182.37 88.5625 1181.86 88.1477 1181.5 87.5852C1181.14 87.0227 1180.96 86.3125 1180.96 85.4545V72.7727ZM1201.11 79.642L1197.79 79.8466C1197.73 79.5625 1197.61 79.3068 1197.42 79.0795C1197.23 78.8466 1196.99 78.6619 1196.68 78.5256C1196.38 78.3835 1196.02 78.3125 1195.6 78.3125C1195.03 78.3125 1194.56 78.4318 1194.17 78.6705C1193.79 78.9034 1193.59 79.2159 1193.59 79.608C1193.59 79.9205 1193.72 80.1847 1193.97 80.4006C1194.22 80.6165 1194.65 80.7898 1195.26 80.9205L1197.62 81.3977C1198.9 81.6591 1199.85 82.0795 1200.47 82.6591C1201.1 83.2386 1201.41 84 1201.41 84.9432C1201.41 85.8011 1201.16 86.554 1200.65 87.2017C1200.15 87.8494 1199.46 88.3551 1198.59 88.7188C1197.72 89.0767 1196.72 89.2557 1195.58 89.2557C1193.85 89.2557 1192.47 88.8949 1191.44 88.1733C1190.41 87.446 1189.82 86.4574 1189.64 85.2074L1193.21 85.0199C1193.32 85.5483 1193.58 85.9517 1193.99 86.2301C1194.41 86.5028 1194.94 86.6392 1195.59 86.6392C1196.22 86.6392 1196.74 86.517 1197.12 86.2727C1197.51 86.0227 1197.71 85.7017 1197.72 85.3097C1197.71 84.9801 1197.57 84.7102 1197.3 84.5C1197.03 84.2841 1196.61 84.1193 1196.04 84.0057L1193.77 83.554C1192.49 83.2983 1191.54 82.8551 1190.92 82.2244C1190.3 81.5937 1189.99 80.7898 1189.99 79.8125C1189.99 78.9716 1190.22 78.2472 1190.67 77.6392C1191.13 77.0312 1191.78 76.5625 1192.6 76.233C1193.44 75.9034 1194.42 75.7386 1195.54 75.7386C1197.19 75.7386 1198.49 76.0881 1199.44 76.7869C1200.39 77.4858 1200.95 78.4375 1201.11 79.642ZM1207.73 89H1203.78L1209.8 71.5455H1214.56L1220.58 89H1216.62L1212.25 75.5341H1212.11L1207.73 89ZM1207.48 82.1392H1216.83V85.0199H1207.48V82.1392ZM1223.57 93.9091V75.9091H1227.15V78.108H1227.31C1227.47 77.7557 1227.7 77.3977 1228 77.0341C1228.31 76.6648 1228.7 76.358 1229.19 76.1136C1229.69 75.8636 1230.3 75.7386 1231.03 75.7386C1231.99 75.7386 1232.87 75.9886 1233.68 76.4886C1234.48 76.983 1235.13 77.7301 1235.61 78.7301C1236.09 79.7244 1236.34 80.9716 1236.34 82.4716C1236.34 83.9318 1236.1 85.1648 1235.63 86.1705C1235.16 87.1705 1234.53 87.929 1233.72 88.446C1232.92 88.9574 1232.02 89.2131 1231.03 89.2131C1230.32 89.2131 1229.72 89.0966 1229.23 88.8636C1228.74 88.6307 1228.34 88.3381 1228.03 87.9858C1227.71 87.6278 1227.47 87.267 1227.31 86.9034H1227.2V93.9091H1223.57ZM1227.12 82.4545C1227.12 83.233 1227.23 83.9119 1227.45 84.4915C1227.66 85.071 1227.97 85.5227 1228.38 85.8466C1228.79 86.1648 1229.29 86.3239 1229.88 86.3239C1230.47 86.3239 1230.97 86.1619 1231.38 85.8381C1231.78 85.5085 1232.09 85.054 1232.3 84.4744C1232.52 83.8892 1232.63 83.2159 1232.63 82.4545C1232.63 81.6989 1232.52 81.0341 1232.31 80.4602C1232.1 79.8864 1231.79 79.4375 1231.38 79.1136C1230.97 78.7898 1230.47 78.6278 1229.88 78.6278C1229.28 78.6278 1228.78 78.7841 1228.38 79.0966C1227.97 79.4091 1227.66 79.8523 1227.45 80.4261C1227.23 81 1227.12 81.6761 1227.12 82.4545ZM1239.72 93.9091V75.9091H1243.3V78.108H1243.46C1243.62 77.7557 1243.85 77.3977 1244.15 77.0341C1244.45 76.6648 1244.85 76.358 1245.34 76.1136C1245.84 75.8636 1246.45 75.7386 1247.18 75.7386C1248.14 75.7386 1249.02 75.9886 1249.82 76.4886C1250.63 76.983 1251.28 77.7301 1251.76 78.7301C1252.24 79.7244 1252.48 80.9716 1252.48 82.4716C1252.48 83.9318 1252.25 85.1648 1251.78 86.1705C1251.31 87.1705 1250.67 87.929 1249.87 88.446C1249.07 88.9574 1248.17 89.2131 1247.17 89.2131C1246.47 89.2131 1245.87 89.0966 1245.37 88.8636C1244.89 88.6307 1244.49 88.3381 1244.17 87.9858C1243.86 87.6278 1243.62 87.267 1243.46 86.9034H1243.35V93.9091H1239.72ZM1243.27 82.4545C1243.27 83.233 1243.38 83.9119 1243.59 84.4915C1243.81 85.071 1244.12 85.5227 1244.53 85.8466C1244.94 86.1648 1245.44 86.3239 1246.02 86.3239C1246.61 86.3239 1247.11 86.1619 1247.52 85.8381C1247.93 85.5085 1248.24 85.054 1248.45 84.4744C1248.67 83.8892 1248.78 83.2159 1248.78 82.4545C1248.78 81.6989 1248.67 81.0341 1248.46 80.4602C1248.25 79.8864 1247.94 79.4375 1247.53 79.1136C1247.12 78.7898 1246.62 78.6278 1246.02 78.6278C1245.43 78.6278 1244.93 78.7841 1244.52 79.0966C1244.12 79.4091 1243.81 79.8523 1243.59 80.4261C1243.38 81 1243.27 81.6761 1243.27 82.4545Z" fill="white"/>
<rect x="1111.5" y="153.5" width="93" height="61" rx="2.5" fill="white"/>
<rect x="1111.5" y="153.5" width="93" height="61" rx="2.5" stroke="#100E11" stroke-width="3"/>
<path d="M1139.56 184.273C1139.56 186.176 1139.2 187.795 1138.47 189.131C1137.76 190.466 1136.78 191.486 1135.54 192.19C1134.31 192.889 1132.92 193.239 1131.38 193.239C1129.83 193.239 1128.44 192.886 1127.21 192.182C1125.97 191.477 1125 190.457 1124.28 189.122C1123.57 187.787 1123.21 186.17 1123.21 184.273C1123.21 182.369 1123.57 180.75 1124.28 179.415C1125 178.08 1125.97 177.062 1127.21 176.364C1128.44 175.659 1129.83 175.307 1131.38 175.307C1132.92 175.307 1134.31 175.659 1135.54 176.364C1136.78 177.062 1137.76 178.08 1138.47 179.415C1139.2 180.75 1139.56 182.369 1139.56 184.273ZM1135.82 184.273C1135.82 183.04 1135.63 182 1135.26 181.153C1134.9 180.307 1134.38 179.665 1133.72 179.227C1133.05 178.79 1132.28 178.571 1131.38 178.571C1130.49 178.571 1129.71 178.79 1129.05 179.227C1128.38 179.665 1127.87 180.307 1127.5 181.153C1127.13 182 1126.95 183.04 1126.95 184.273C1126.95 185.506 1127.13 186.545 1127.5 187.392C1127.87 188.239 1128.38 188.881 1129.05 189.318C1129.71 189.756 1130.49 189.974 1131.38 189.974C1132.28 189.974 1133.05 189.756 1133.72 189.318C1134.38 188.881 1134.9 188.239 1135.26 187.392C1135.63 186.545 1135.82 185.506 1135.82 184.273ZM1150.15 179.909V182.636H1142.26V179.909H1150.15ZM1144.05 176.773H1147.68V188.977C1147.68 189.312 1147.73 189.574 1147.84 189.761C1147.94 189.943 1148.08 190.071 1148.26 190.145C1148.45 190.219 1148.67 190.256 1148.91 190.256C1149.08 190.256 1149.25 190.241 1149.42 190.213C1149.59 190.179 1149.72 190.153 1149.81 190.136L1150.38 192.838C1150.2 192.895 1149.95 192.96 1149.62 193.034C1149.29 193.114 1148.89 193.162 1148.42 193.179C1147.54 193.213 1146.77 193.097 1146.11 192.83C1145.46 192.562 1144.95 192.148 1144.59 191.585C1144.22 191.023 1144.05 190.312 1144.05 189.455V176.773ZM1157.38 185.432V193H1153.75V175.545H1157.28V182.219H1157.43C1157.73 181.446 1158.21 180.841 1158.87 180.403C1159.52 179.96 1160.35 179.739 1161.35 179.739C1162.25 179.739 1163.05 179.938 1163.72 180.335C1164.41 180.727 1164.93 181.293 1165.31 182.031C1165.69 182.764 1165.88 183.642 1165.87 184.665V193H1162.24V185.312C1162.25 184.506 1162.04 183.878 1161.63 183.429C1161.22 182.98 1160.64 182.756 1159.91 182.756C1159.41 182.756 1158.97 182.861 1158.59 183.071C1158.22 183.281 1157.92 183.588 1157.71 183.991C1157.5 184.389 1157.39 184.869 1157.38 185.432ZM1175.65 193.256C1174.31 193.256 1173.15 192.983 1172.18 192.438C1171.21 191.886 1170.47 191.108 1169.94 190.102C1169.42 189.091 1169.16 187.895 1169.16 186.514C1169.16 185.168 1169.42 183.986 1169.94 182.969C1170.47 181.952 1171.2 181.159 1172.15 180.591C1173.11 180.023 1174.23 179.739 1175.51 179.739C1176.37 179.739 1177.18 179.878 1177.92 180.156C1178.67 180.429 1179.32 180.841 1179.88 181.392C1180.44 181.943 1180.88 182.636 1181.19 183.472C1181.51 184.301 1181.66 185.273 1181.66 186.386V187.384H1170.61V185.134H1178.25C1178.25 184.611 1178.13 184.148 1177.9 183.744C1177.68 183.341 1177.36 183.026 1176.96 182.798C1176.56 182.565 1176.1 182.449 1175.57 182.449C1175.02 182.449 1174.53 182.577 1174.1 182.832C1173.68 183.082 1173.35 183.42 1173.11 183.847C1172.88 184.267 1172.75 184.736 1172.75 185.253V187.392C1172.75 188.04 1172.87 188.599 1173.11 189.071C1173.35 189.543 1173.69 189.906 1174.14 190.162C1174.58 190.418 1175.11 190.545 1175.71 190.545C1176.12 190.545 1176.49 190.489 1176.82 190.375C1177.16 190.261 1177.44 190.091 1177.68 189.864C1177.92 189.636 1178.1 189.358 1178.23 189.028L1181.59 189.25C1181.42 190.057 1181.07 190.761 1180.54 191.364C1180.01 191.96 1179.34 192.426 1178.51 192.761C1177.69 193.091 1176.73 193.256 1175.65 193.256ZM1184.99 193V179.909H1188.51V182.193H1188.65C1188.89 181.381 1189.29 180.767 1189.85 180.352C1190.41 179.932 1191.06 179.722 1191.79 179.722C1191.97 179.722 1192.17 179.733 1192.38 179.756C1192.59 179.778 1192.78 179.81 1192.94 179.849V183.071C1192.76 183.02 1192.53 182.974 1192.23 182.935C1191.93 182.895 1191.65 182.875 1191.4 182.875C1190.87 182.875 1190.39 182.991 1189.97 183.224C1189.55 183.452 1189.22 183.77 1188.98 184.179C1188.74 184.588 1188.62 185.06 1188.62 185.594V193H1184.99Z" fill="#100E11"/>
</svg>
