<svg width="40" height="40" viewBox="0 0 40 40" fill="none" xmlns="http://www.w3.org/2000/svg">
<path d="M2.5 35.625C2.5 36.1223 2.69754 36.5992 3.04917 36.9508C3.40081 37.3025 3.87772 37.5 4.375 37.5H35.625C36.1223 37.5 36.5992 37.3025 36.9508 36.9508C37.3025 36.5992 37.5 36.1223 37.5 35.625V13.75H2.5V35.625ZM27.5 16.5625C27.5 16.4796 27.5329 16.4001 27.5915 16.3415C27.6501 16.2829 27.7296 16.25 27.8125 16.25H30.9375C31.0204 16.25 31.0999 16.2829 31.1585 16.3415C31.2171 16.4001 31.25 16.4796 31.25 16.5625V19.6875C31.25 19.7704 31.2171 19.8499 31.1585 19.9085C31.0999 19.9671 31.0204 20 30.9375 20H27.8125C27.7296 20 27.6501 19.9671 27.5915 19.9085C27.5329 19.8499 27.5 19.7704 27.5 19.6875V16.5625ZM27.5 22.8125C27.5 22.7296 27.5329 22.6501 27.5915 22.5915C27.6501 22.5329 27.7296 22.5 27.8125 22.5H30.9375C31.0204 22.5 31.0999 22.5329 31.1585 22.5915C31.2171 22.6501 31.25 22.7296 31.25 22.8125V25.9375C31.25 26.0204 31.2171 26.0999 31.1585 26.1585C31.0999 26.2171 31.0204 26.25 30.9375 26.25H27.8125C27.7296 26.25 27.6501 26.2171 27.5915 26.1585C27.5329 26.0999 27.5 26.0204 27.5 25.9375V22.8125ZM21.25 16.5625C21.25 16.4796 21.2829 16.4001 21.3415 16.3415C21.4001 16.2829 21.4796 16.25 21.5625 16.25H24.6875C24.7704 16.25 24.8499 16.2829 24.9085 16.3415C24.9671 16.4001 25 16.4796 25 16.5625V19.6875C25 19.7704 24.9671 19.8499 24.9085 19.9085C24.8499 19.9671 24.7704 20 24.6875 20H21.5625C21.4796 20 21.4001 19.9671 21.3415 19.9085C21.2829 19.8499 21.25 19.7704 21.25 19.6875V16.5625ZM21.25 22.8125C21.25 22.7296 21.2829 22.6501 21.3415 22.5915C21.4001 22.5329 21.4796 22.5 21.5625 22.5H24.6875C24.7704 22.5 24.8499 22.5329 24.9085 22.5915C24.9671 22.6501 25 22.7296 25 22.8125V25.9375C25 26.0204 24.9671 26.0999 24.9085 26.1585C24.8499 26.2171 24.7704 26.25 24.6875 26.25H21.5625C21.4796 26.25 21.4001 26.2171 21.3415 26.1585C21.2829 26.0999 21.25 26.0204 21.25 25.9375V22.8125ZM21.25 29.0625C21.25 28.9796 21.2829 28.9001 21.3415 28.8415C21.4001 28.7829 21.4796 28.75 21.5625 28.75H24.6875C24.7704 28.75 24.8499 28.7829 24.9085 28.8415C24.9671 28.9001 25 28.9796 25 29.0625V32.1875C25 32.2704 24.9671 32.3499 24.9085 32.4085C24.8499 32.4671 24.7704 32.5 24.6875 32.5H21.5625C21.4796 32.5 21.4001 32.4671 21.3415 32.4085C21.2829 32.3499 21.25 32.2704 21.25 32.1875V29.0625ZM15 22.8125C15 22.7296 15.0329 22.6501 15.0915 22.5915C15.1501 22.5329 15.2296 22.5 15.3125 22.5H18.4375C18.5204 22.5 18.5999 22.5329 18.6585 22.5915C18.7171 22.6501 18.75 22.7296 18.75 22.8125V25.9375C18.75 26.0204 18.7171 26.0999 18.6585 26.1585C18.5999 26.2171 18.5204 26.25 18.4375 26.25H15.3125C15.2296 26.25 15.1501 26.2171 15.0915 26.1585C15.0329 26.0999 15 26.0204 15 25.9375V22.8125ZM15 29.0625C15 28.9796 15.0329 28.9001 15.0915 28.8415C15.1501 28.7829 15.2296 28.75 15.3125 28.75H18.4375C18.5204 28.75 18.5999 28.7829 18.6585 28.8415C18.7171 28.9001 18.75 28.9796 18.75 29.0625V32.1875C18.75 32.2704 18.7171 32.3499 18.6585 32.4085C18.5999 32.4671 18.5204 32.5 18.4375 32.5H15.3125C15.2296 32.5 15.1501 32.4671 15.0915 32.4085C15.0329 32.3499 15 32.2704 15 32.1875V29.0625ZM8.75 22.8125C8.75 22.7296 8.78292 22.6501 8.84153 22.5915C8.90013 22.5329 8.97962 22.5 9.0625 22.5H12.1875C12.2704 22.5 12.3499 22.5329 12.4085 22.5915C12.4671 22.6501 12.5 22.7296 12.5 22.8125V25.9375C12.5 26.0204 12.4671 26.0999 12.4085 26.1585C12.3499 26.2171 12.2704 26.25 12.1875 26.25H9.0625C8.97962 26.25 8.90013 26.2171 8.84153 26.1585C8.78292 26.0999 8.75 26.0204 8.75 25.9375V22.8125ZM8.75 29.0625C8.75 28.9796 8.78292 28.9001 8.84153 28.8415C8.90013 28.7829 8.97962 28.75 9.0625 28.75H12.1875C12.2704 28.75 12.3499 28.7829 12.4085 28.8415C12.4671 28.9001 12.5 28.9796 12.5 29.0625V32.1875C12.5 32.2704 12.4671 32.3499 12.4085 32.4085C12.3499 32.4671 12.2704 32.5 12.1875 32.5H9.0625C8.97962 32.5 8.90013 32.4671 8.84153 32.4085C8.78292 32.3499 8.75 32.2704 8.75 32.1875V29.0625ZM35.625 5H31.2562V2.5H27.5062V5H12.4937V2.5H8.74375V5H4.375C4.12971 4.99794 3.88643 5.04443 3.65919 5.13681C3.43195 5.22918 3.22523 5.3656 3.05094 5.53822C2.87666 5.71083 2.73825 5.91623 2.64369 6.14257C2.54914 6.36892 2.5003 6.61173 2.5 6.85703V11.25H37.5V6.85703C37.4997 6.61173 37.4509 6.36892 37.3563 6.14257C37.2618 5.91623 37.1233 5.71083 36.9491 5.53822C36.7748 5.3656 36.5681 5.22918 36.3408 5.13681C36.1136 5.04443 35.8703 4.99794 35.625 5Z" fill="white"/>
</svg>
