<svg width="40" height="40" viewBox="0 0 40 40" fill="none" xmlns="http://www.w3.org/2000/svg">
<path d="M20 3.75C11.0258 3.75 3.75 11.0258 3.75 20C3.75 28.9742 11.0258 36.25 20 36.25C28.9742 36.25 36.25 28.9742 36.25 20C36.25 11.0258 28.9742 3.75 20 3.75ZM27.5 22.5H20C19.6685 22.5 19.3505 22.3683 19.1161 22.1339C18.8817 21.8995 18.75 21.5815 18.75 21.25V10C18.75 9.66848 18.8817 9.35054 19.1161 9.11612C19.3505 8.8817 19.6685 8.75 20 8.75C20.3315 8.75 20.6495 8.8817 20.8839 9.11612C21.1183 9.35054 21.25 9.66848 21.25 10V20H27.5C27.8315 20 28.1495 20.1317 28.3839 20.3661C28.6183 20.6005 28.75 20.9185 28.75 21.25C28.75 21.5815 28.6183 21.8995 28.3839 22.1339C28.1495 22.3683 27.8315 22.5 27.5 22.5Z" fill="white"/>
</svg>
