<svg width="40" height="40" viewBox="0 0 40 40" fill="none" xmlns="http://www.w3.org/2000/svg">
<path d="M27.2914 5.41641C29.2236 5.42218 31.0751 6.19231 32.4414 7.55861C33.8077 8.92491 34.5778 10.7764 34.5836 12.7086V27.2914C34.5778 29.2236 33.8077 31.0751 32.4414 32.4414C31.0751 33.8077 29.2236 34.5778 27.2914 34.5836H12.7086C10.7764 34.5778 8.92491 33.8077 7.55861 32.4414C6.19231 31.0751 5.42218 29.2236 5.41641 27.2914V12.7086C5.42218 10.7764 6.19231 8.92491 7.55861 7.55861C8.92491 6.19231 10.7764 5.42218 12.7086 5.41641H27.2914ZM27.2914 2.5H12.7086C7.09375 2.5 2.5 7.09375 2.5 12.7086V27.2914C2.5 32.9062 7.09375 37.5 12.7086 37.5H27.2914C32.9062 37.5 37.5 32.9062 37.5 27.2914V12.7086C37.5 7.09375 32.9062 2.5 27.2914 2.5Z" fill="#051923"/>
<path d="M29.4789 12.709C29.0463 12.709 28.6233 12.5807 28.2636 12.3403C27.9039 12.1 27.6235 11.7583 27.4579 11.3586C27.2924 10.9589 27.249 10.5191 27.3334 10.0947C27.4178 9.67039 27.6262 9.28062 27.9321 8.97469C28.238 8.66876 28.6278 8.46042 29.0521 8.37602C29.4765 8.29161 29.9163 8.33493 30.316 8.5005C30.7157 8.66607 31.0574 8.94644 31.2977 9.30618C31.5381 9.66591 31.6664 10.0888 31.6664 10.5215C31.667 10.8089 31.6109 11.0937 31.5012 11.3593C31.3914 11.625 31.2303 11.8664 31.0271 12.0697C30.8238 12.2729 30.5824 12.434 30.3168 12.5437C30.0511 12.6534 29.7663 12.7096 29.4789 12.709ZM20 14.1668C21.1538 14.1668 22.2816 14.5089 23.241 15.1499C24.2003 15.7909 24.948 16.702 25.3895 17.768C25.8311 18.8339 25.9466 20.0069 25.7215 21.1385C25.4964 22.2701 24.9408 23.3095 24.125 24.1254C23.3091 24.9412 22.2697 25.4968 21.1381 25.7219C20.0065 25.947 18.8335 25.8315 17.7676 25.3899C16.7016 24.9484 15.7906 24.2007 15.1495 23.2414C14.5085 22.282 14.1664 21.1542 14.1664 20.0004C14.1681 18.4537 14.7832 16.9709 15.8769 15.8772C16.9705 14.7836 18.4533 14.1685 20 14.1668ZM20 11.2504C18.2694 11.2504 16.5777 11.7636 15.1388 12.725C13.6998 13.6865 12.5783 15.0531 11.9161 16.6519C11.2538 18.2508 11.0805 20.0101 11.4181 21.7074C11.7558 23.4048 12.5891 24.9639 13.8128 26.1876C15.0365 27.4113 16.5956 28.2446 18.293 28.5823C19.9903 28.9199 21.7496 28.7466 23.3485 28.0843C24.9473 27.4221 26.3139 26.3006 27.2754 24.8616C28.2368 23.4227 28.75 21.731 28.75 20.0004C28.75 17.6797 27.8281 15.4542 26.1872 13.8132C24.5462 12.1723 22.3206 11.2504 20 11.2504Z" fill="#051923"/>
</svg>
