<svg width="40" height="40" viewBox="0 0 40 40" fill="none" xmlns="http://www.w3.org/2000/svg">
<path d="M33.625 6H7.375C6.21506 6.00124 5.10298 6.46258 4.28278 7.28278C3.46258 8.10298 3.00124 9.21506 3 10.375V29.125C3.00124 30.2849 3.46258 31.397 4.28278 32.2172C5.10298 33.0374 6.21506 33.4988 7.375 33.5H33.625C34.7849 33.4988 35.897 33.0374 36.7172 32.2172C37.5374 31.397 37.9988 30.2849 38 29.125V10.375C37.9988 9.21506 37.5374 8.10298 36.7172 7.28278C35.897 6.46258 34.7849 6.00124 33.625 6ZM32.5172 13.2367L21.2672 21.9867C21.0478 22.1573 20.7779 22.2498 20.5 22.2498C20.2221 22.2498 19.9522 22.1573 19.7328 21.9867L8.48281 13.2367C8.35064 13.1369 8.23961 13.0118 8.1562 12.8687C8.07278 12.7256 8.01864 12.5674 7.99691 12.4032C7.97519 12.239 7.98631 12.0721 8.02964 11.9122C8.07296 11.7524 8.14763 11.6027 8.2493 11.4719C8.35096 11.3412 8.4776 11.2319 8.62186 11.1505C8.76611 11.0691 8.92511 11.0172 9.0896 10.9978C9.25409 10.9784 9.4208 10.9919 9.58004 11.0374C9.73928 11.083 9.88787 11.1598 10.0172 11.2633L20.5 19.4164L30.9828 11.2633C31.2449 11.0653 31.5744 10.9785 31.9001 11.0216C32.2257 11.0647 32.5213 11.2342 32.7229 11.4935C32.9245 11.7528 33.016 12.0811 32.9775 12.4073C32.939 12.7335 32.7736 13.0315 32.5172 13.2367Z" fill="#00A6FB"/>
</svg>
